solid SHAFT_Default_sldprt
   facet normal -1.000000e+000 0.000000e+000 0.000000e+000
      outer loop
         vertex 2.500000e-001 -4.184495e-002 -4.300000e-002
         vertex 2.500000e-001 4.184495e-002 -4.300000e-002
         vertex 2.500000e-001 3.769320e-002 -4.668215e-002
      endloop
   endfacet
   facet normal -1.000000e+000 0.000000e+000 0.000000e+000
      outer loop
         vertex 2.500000e-001 1.998839e-002 -5.657265e-002
         vertex 2.500000e-001 1.014005e-002 -5.913695e-002
         vertex 2.500000e-001 -3.769320e-002 -4.668215e-002
      endloop
   endfacet
   facet normal -1.000000e+000 0.000000e+000 0.000000e+000
      outer loop
         vertex 2.500000e-001 -4.184495e-002 -4.300000e-002
         vertex 2.500000e-001 3.769320e-002 -4.668215e-002
         vertex 2.500000e-001 -3.769320e-002 -4.668215e-002
      endloop
   endfacet
   facet normal -1.000000e+000 0.000000e+000 0.000000e+000
      outer loop
         vertex 2.500000e-001 -3.769320e-002 -4.668215e-002
         vertex 2.500000e-001 3.769320e-002 -4.668215e-002
         vertex 2.500000e-001 2.926170e-002 -5.238084e-002
      endloop
   endfacet
   facet normal -1.000000e+000 0.000000e+000 0.000000e+000
      outer loop
         vertex 2.500000e-001 -3.769320e-002 -4.668215e-002
         vertex 2.500000e-001 2.926170e-002 -5.238084e-002
         vertex 2.500000e-001 1.998839e-002 -5.657265e-002
      endloop
   endfacet
   facet normal -1.000000e+000 0.000000e+000 0.000000e+000
      outer loop
         vertex 2.500000e-001 1.014005e-002 -5.913695e-002
         vertex 2.500000e-001 -1.469576e-017 -6.000000e-002
         vertex 2.500000e-001 -3.769320e-002 -4.668215e-002
      endloop
   endfacet
   facet normal -1.000000e+000 0.000000e+000 0.000000e+000
      outer loop
         vertex 2.500000e-001 -3.769320e-002 -4.668215e-002
         vertex 2.500000e-001 -1.469576e-017 -6.000000e-002
         vertex 2.500000e-001 -1.014005e-002 -5.913695e-002
      endloop
   endfacet
   facet normal -1.000000e+000 0.000000e+000 0.000000e+000
      outer loop
         vertex 2.500000e-001 -3.769320e-002 -4.668215e-002
         vertex 2.500000e-001 -1.014005e-002 -5.913695e-002
         vertex 2.500000e-001 -2.926170e-002 -5.238084e-002
      endloop
   endfacet
   facet normal -1.000000e+000 0.000000e+000 0.000000e+000
      outer loop
         vertex 2.500000e-001 -2.926170e-002 -5.238084e-002
         vertex 2.500000e-001 -1.014005e-002 -5.913695e-002
         vertex 2.500000e-001 -1.998839e-002 -5.657265e-002
      endloop
   endfacet
   facet normal 0.000000e+000 0.000000e+000 -1.000000e+000
      outer loop
         vertex 2.500000e-001 -4.184495e-002 -4.300000e-002
         vertex 0.000000e+000 -4.184495e-002 -4.300000e-002
         vertex 2.500000e-001 4.184495e-002 -4.300000e-002
      endloop
   endfacet
   facet normal 0.000000e+000 0.000000e+000 -1.000000e+000
      outer loop
         vertex 2.500000e-001 4.184495e-002 -4.300000e-002
         vertex 0.000000e+000 -4.184495e-002 -4.300000e-002
         vertex 0.000000e+000 4.184495e-002 -4.300000e-002
      endloop
   endfacet
   facet normal -1.000000e+000 0.000000e+000 0.000000e+000
      outer loop
         vertex 0.000000e+000 4.184495e-002 -4.300000e-002
         vertex 0.000000e+000 -4.184495e-002 -4.300000e-002
         vertex 0.000000e+000 4.504034e-002 -3.964049e-002
      endloop
   endfacet
   facet normal -1.000000e+000 0.000000e+000 0.000000e+000
      outer loop
         vertex 0.000000e+000 4.504034e-002 -3.964049e-002
         vertex 0.000000e+000 -4.184495e-002 -4.300000e-002
         vertex 0.000000e+000 -4.504034e-002 -3.964049e-002
      endloop
   endfacet
   facet normal -1.000000e+000 0.000000e+000 0.000000e+000
      outer loop
         vertex 0.000000e+000 4.504034e-002 -3.964049e-002
         vertex 0.000000e+000 -4.504034e-002 -3.964049e-002
         vertex 0.000000e+000 5.109175e-002 -3.145844e-002
      endloop
   endfacet
   facet normal -1.000000e+000 0.000000e+000 0.000000e+000
      outer loop
         vertex 0.000000e+000 5.737000e-002 1.756937e-002
         vertex 0.000000e+000 5.951402e-002 7.621069e-003
         vertex 0.000000e+000 -4.504034e-002 -3.964049e-002
      endloop
   endfacet
   facet normal -1.000000e+000 0.000000e+000 0.000000e+000
      outer loop
         vertex 0.000000e+000 -4.504034e-002 -3.964049e-002
         vertex 0.000000e+000 5.951402e-002 7.621069e-003
         vertex 0.000000e+000 5.994594e-002 -2.546472e-003
      endloop
   endfacet
   facet normal -1.000000e+000 0.000000e+000 0.000000e+000
      outer loop
         vertex 0.000000e+000 -5.567334e-002 -2.237139e-002
         vertex 0.000000e+000 -5.865332e-002 -1.264076e-002
         vertex 0.000000e+000 -2.471408e-002 5.467371e-002
      endloop
   endfacet
   facet normal -1.000000e+000 0.000000e+000 0.000000e+000
      outer loop
         vertex 0.000000e+000 -5.737000e-002 1.756937e-002
         vertex 0.000000e+000 -5.357555e-002 2.701223e-002
         vertex 0.000000e+000 -4.823983e-002 3.567799e-002
      endloop
   endfacet
   facet normal -1.000000e+000 0.000000e+000 0.000000e+000
      outer loop
         vertex 0.000000e+000 -5.109175e-002 -3.145844e-002
         vertex 0.000000e+000 2.471408e-002 5.467371e-002
         vertex 0.000000e+000 3.359849e-002 4.971058e-002
      endloop
   endfacet
   facet normal -1.000000e+000 0.000000e+000 0.000000e+000
      outer loop
         vertex 0.000000e+000 -5.865332e-002 -1.264076e-002
         vertex 0.000000e+000 -5.994594e-002 -2.546472e-003
         vertex 0.000000e+000 -2.471408e-002 5.467371e-002
      endloop
   endfacet
   facet normal -1.000000e+000 0.000000e+000 0.000000e+000
      outer loop
         vertex 0.000000e+000 -2.471408e-002 5.467371e-002
         vertex 0.000000e+000 -5.994594e-002 -2.546472e-003
         vertex 0.000000e+000 -5.951402e-002 7.621069e-003
      endloop
   endfacet
   facet normal -1.000000e+000 0.000000e+000 0.000000e+000
      outer loop
         vertex 0.000000e+000 -2.471408e-002 5.467371e-002
         vertex 0.000000e+000 -5.951402e-002 7.621069e-003
         vertex 0.000000e+000 -3.359849e-002 4.971058e-002
      endloop
   endfacet
   facet normal -1.000000e+000 0.000000e+000 0.000000e+000
      outer loop
         vertex 0.000000e+000 -5.567334e-002 -2.237139e-002
         vertex 0.000000e+000 -2.471408e-002 5.467371e-002
         vertex 0.000000e+000 -5.109175e-002 -3.145844e-002
      endloop
   endfacet
   facet normal -1.000000e+000 0.000000e+000 0.000000e+000
      outer loop
         vertex 0.000000e+000 -5.109175e-002 -3.145844e-002
         vertex 0.000000e+000 -2.471408e-002 5.467371e-002
         vertex 0.000000e+000 -1.511868e-002 5.806398e-002
      endloop
   endfacet
   facet normal -1.000000e+000 0.000000e+000 0.000000e+000
      outer loop
         vertex 0.000000e+000 -5.109175e-002 -3.145844e-002
         vertex 0.000000e+000 -1.511868e-002 5.806398e-002
         vertex 0.000000e+000 -5.088356e-003 5.978385e-002
      endloop
   endfacet
   facet normal -1.000000e+000 0.000000e+000 0.000000e+000
      outer loop
         vertex 0.000000e+000 3.359849e-002 4.971058e-002
         vertex 0.000000e+000 4.151633e-002 4.331737e-002
         vertex 0.000000e+000 -5.109175e-002 -3.145844e-002
      endloop
   endfacet
   facet normal -1.000000e+000 0.000000e+000 0.000000e+000
      outer loop
         vertex 0.000000e+000 -5.109175e-002 -3.145844e-002
         vertex 0.000000e+000 4.151633e-002 4.331737e-002
         vertex 0.000000e+000 4.823983e-002 3.567799e-002
      endloop
   endfacet
   facet normal -1.000000e+000 0.000000e+000 0.000000e+000
      outer loop
         vertex 0.000000e+000 -5.109175e-002 -3.145844e-002
         vertex 0.000000e+000 4.823983e-002 3.567799e-002
         vertex 0.000000e+000 -4.504034e-002 -3.964049e-002
      endloop
   endfacet
   facet normal -1.000000e+000 0.000000e+000 0.000000e+000
      outer loop
         vertex 0.000000e+000 -4.504034e-002 -3.964049e-002
         vertex 0.000000e+000 4.823983e-002 3.567799e-002
         vertex 0.000000e+000 5.357555e-002 2.701223e-002
      endloop
   endfacet
   facet normal -1.000000e+000 0.000000e+000 0.000000e+000
      outer loop
         vertex 0.000000e+000 -4.504034e-002 -3.964049e-002
         vertex 0.000000e+000 5.357555e-002 2.701223e-002
         vertex 0.000000e+000 5.737000e-002 1.756937e-002
      endloop
   endfacet
   facet normal -1.000000e+000 0.000000e+000 0.000000e+000
      outer loop
         vertex 0.000000e+000 5.994594e-002 -2.546472e-003
         vertex 0.000000e+000 5.865332e-002 -1.264076e-002
         vertex 0.000000e+000 -4.504034e-002 -3.964049e-002
      endloop
   endfacet
   facet normal -1.000000e+000 0.000000e+000 0.000000e+000
      outer loop
         vertex 0.000000e+000 -4.504034e-002 -3.964049e-002
         vertex 0.000000e+000 5.865332e-002 -1.264076e-002
         vertex 0.000000e+000 5.567334e-002 -2.237139e-002
      endloop
   endfacet
   facet normal -1.000000e+000 0.000000e+000 0.000000e+000
      outer loop
         vertex 0.000000e+000 -4.504034e-002 -3.964049e-002
         vertex 0.000000e+000 5.567334e-002 -2.237139e-002
         vertex 0.000000e+000 5.109175e-002 -3.145844e-002
      endloop
   endfacet
   facet normal -1.000000e+000 0.000000e+000 0.000000e+000
      outer loop
         vertex 0.000000e+000 -5.737000e-002 1.756937e-002
         vertex 0.000000e+000 -4.823983e-002 3.567799e-002
         vertex 0.000000e+000 -5.951402e-002 7.621069e-003
      endloop
   endfacet
   facet normal -1.000000e+000 0.000000e+000 0.000000e+000
      outer loop
         vertex 0.000000e+000 -5.951402e-002 7.621069e-003
         vertex 0.000000e+000 -4.823983e-002 3.567799e-002
         vertex 0.000000e+000 -4.151633e-002 4.331737e-002
      endloop
   endfacet
   facet normal -1.000000e+000 0.000000e+000 0.000000e+000
      outer loop
         vertex 0.000000e+000 -5.951402e-002 7.621069e-003
         vertex 0.000000e+000 -4.151633e-002 4.331737e-002
         vertex 0.000000e+000 -3.359849e-002 4.971058e-002
      endloop
   endfacet
   facet normal -1.000000e+000 0.000000e+000 0.000000e+000
      outer loop
         vertex 0.000000e+000 -5.088356e-003 5.978385e-002
         vertex 0.000000e+000 5.088356e-003 5.978385e-002
         vertex 0.000000e+000 -5.109175e-002 -3.145844e-002
      endloop
   endfacet
   facet normal -1.000000e+000 0.000000e+000 0.000000e+000
      outer loop
         vertex 0.000000e+000 -5.109175e-002 -3.145844e-002
         vertex 0.000000e+000 5.088356e-003 5.978385e-002
         vertex 0.000000e+000 1.511868e-002 5.806398e-002
      endloop
   endfacet
   facet normal -1.000000e+000 0.000000e+000 0.000000e+000
      outer loop
         vertex 0.000000e+000 -5.109175e-002 -3.145844e-002
         vertex 0.000000e+000 1.511868e-002 5.806398e-002
         vertex 0.000000e+000 2.471408e-002 5.467371e-002
      endloop
   endfacet
   facet normal 1.000000e+000 0.000000e+000 0.000000e+000
      outer loop
         vertex 1.500000e+000 -1.469576e-017 -6.000000e-002
         vertex 1.500000e+000 1.014005e-002 -5.913695e-002
         vertex 1.500000e+000 4.823983e-002 3.567799e-002
      endloop
   endfacet
   facet normal 1.000000e+000 0.000000e+000 0.000000e+000
      outer loop
         vertex 1.500000e+000 5.109175e-002 -3.145844e-002
         vertex 1.500000e+000 4.823983e-002 3.567799e-002
         vertex 1.500000e+000 4.504034e-002 -3.964049e-002
      endloop
   endfacet
   facet normal 1.000000e+000 0.000000e+000 0.000000e+000
      outer loop
         vertex 1.500000e+000 4.504034e-002 -3.964049e-002
         vertex 1.500000e+000 4.823983e-002 3.567799e-002
         vertex 1.500000e+000 3.769320e-002 -4.668215e-002
      endloop
   endfacet
   facet normal 1.000000e+000 0.000000e+000 0.000000e+000
      outer loop
         vertex 1.500000e+000 2.471408e-002 5.467371e-002
         vertex 1.500000e+000 -4.504034e-002 -3.964049e-002
         vertex 1.500000e+000 3.359849e-002 4.971058e-002
      endloop
   endfacet
   facet normal 1.000000e+000 0.000000e+000 0.000000e+000
      outer loop
         vertex 1.500000e+000 3.359849e-002 4.971058e-002
         vertex 1.500000e+000 -4.504034e-002 -3.964049e-002
         vertex 1.500000e+000 4.151633e-002 4.331737e-002
      endloop
   endfacet
   facet normal 1.000000e+000 0.000000e+000 0.000000e+000
      outer loop
         vertex 1.500000e+000 4.151633e-002 4.331737e-002
         vertex 1.500000e+000 -4.504034e-002 -3.964049e-002
         vertex 1.500000e+000 4.823983e-002 3.567799e-002
      endloop
   endfacet
   facet normal 1.000000e+000 0.000000e+000 0.000000e+000
      outer loop
         vertex 1.500000e+000 4.823983e-002 3.567799e-002
         vertex 1.500000e+000 -4.504034e-002 -3.964049e-002
         vertex 1.500000e+000 -3.769320e-002 -4.668215e-002
      endloop
   endfacet
   facet normal 1.000000e+000 0.000000e+000 0.000000e+000
      outer loop
         vertex 1.500000e+000 4.823983e-002 3.567799e-002
         vertex 1.500000e+000 -3.769320e-002 -4.668215e-002
         vertex 1.500000e+000 -2.926170e-002 -5.238084e-002
      endloop
   endfacet
   facet normal 1.000000e+000 0.000000e+000 0.000000e+000
      outer loop
         vertex 1.500000e+000 -4.151633e-002 4.331737e-002
         vertex 1.500000e+000 -4.823983e-002 3.567799e-002
         vertex 1.500000e+000 -5.109175e-002 -3.145844e-002
      endloop
   endfacet
   facet normal 1.000000e+000 0.000000e+000 0.000000e+000
      outer loop
         vertex 1.500000e+000 -2.926170e-002 -5.238084e-002
         vertex 1.500000e+000 -1.998839e-002 -5.657265e-002
         vertex 1.500000e+000 4.823983e-002 3.567799e-002
      endloop
   endfacet
   facet normal 1.000000e+000 0.000000e+000 0.000000e+000
      outer loop
         vertex 1.500000e+000 4.823983e-002 3.567799e-002
         vertex 1.500000e+000 -1.998839e-002 -5.657265e-002
         vertex 1.500000e+000 -1.014005e-002 -5.913695e-002
      endloop
   endfacet
   facet normal 1.000000e+000 0.000000e+000 0.000000e+000
      outer loop
         vertex 1.500000e+000 4.823983e-002 3.567799e-002
         vertex 1.500000e+000 -1.014005e-002 -5.913695e-002
         vertex 1.500000e+000 -1.469576e-017 -6.000000e-002
      endloop
   endfacet
   facet normal 1.000000e+000 0.000000e+000 0.000000e+000
      outer loop
         vertex 1.500000e+000 1.014005e-002 -5.913695e-002
         vertex 1.500000e+000 1.998839e-002 -5.657265e-002
         vertex 1.500000e+000 4.823983e-002 3.567799e-002
      endloop
   endfacet
   facet normal 1.000000e+000 0.000000e+000 0.000000e+000
      outer loop
         vertex 1.500000e+000 4.823983e-002 3.567799e-002
         vertex 1.500000e+000 1.998839e-002 -5.657265e-002
         vertex 1.500000e+000 2.926170e-002 -5.238084e-002
      endloop
   endfacet
   facet normal 1.000000e+000 0.000000e+000 0.000000e+000
      outer loop
         vertex 1.500000e+000 4.823983e-002 3.567799e-002
         vertex 1.500000e+000 2.926170e-002 -5.238084e-002
         vertex 1.500000e+000 3.769320e-002 -4.668215e-002
      endloop
   endfacet
   facet normal 1.000000e+000 0.000000e+000 0.000000e+000
      outer loop
         vertex 1.500000e+000 5.109175e-002 -3.145844e-002
         vertex 1.500000e+000 5.567334e-002 -2.237139e-002
         vertex 1.500000e+000 4.823983e-002 3.567799e-002
      endloop
   endfacet
   facet normal 1.000000e+000 0.000000e+000 0.000000e+000
      outer loop
         vertex 1.500000e+000 4.823983e-002 3.567799e-002
         vertex 1.500000e+000 5.567334e-002 -2.237139e-002
         vertex 1.500000e+000 5.865332e-002 -1.264076e-002
      endloop
   endfacet
   facet normal 1.000000e+000 0.000000e+000 0.000000e+000
      outer loop
         vertex 1.500000e+000 4.823983e-002 3.567799e-002
         vertex 1.500000e+000 5.865332e-002 -1.264076e-002
         vertex 1.500000e+000 5.994594e-002 -2.546472e-003
      endloop
   endfacet
   facet normal 1.000000e+000 0.000000e+000 0.000000e+000
      outer loop
         vertex 1.500000e+000 5.994594e-002 -2.546472e-003
         vertex 1.500000e+000 5.951402e-002 7.621069e-003
         vertex 1.500000e+000 4.823983e-002 3.567799e-002
      endloop
   endfacet
   facet normal 1.000000e+000 0.000000e+000 0.000000e+000
      outer loop
         vertex 1.500000e+000 4.823983e-002 3.567799e-002
         vertex 1.500000e+000 5.951402e-002 7.621069e-003
         vertex 1.500000e+000 5.737000e-002 1.756937e-002
      endloop
   endfacet
   facet normal 1.000000e+000 0.000000e+000 0.000000e+000
      outer loop
         vertex 1.500000e+000 4.823983e-002 3.567799e-002
         vertex 1.500000e+000 5.737000e-002 1.756937e-002
         vertex 1.500000e+000 5.357555e-002 2.701223e-002
      endloop
   endfacet
   facet normal 1.000000e+000 0.000000e+000 0.000000e+000
      outer loop
         vertex 1.500000e+000 2.471408e-002 5.467371e-002
         vertex 1.500000e+000 1.511868e-002 5.806398e-002
         vertex 1.500000e+000 -4.504034e-002 -3.964049e-002
      endloop
   endfacet
   facet normal 1.000000e+000 0.000000e+000 0.000000e+000
      outer loop
         vertex 1.500000e+000 -4.504034e-002 -3.964049e-002
         vertex 1.500000e+000 1.511868e-002 5.806398e-002
         vertex 1.500000e+000 5.088356e-003 5.978385e-002
      endloop
   endfacet
   facet normal 1.000000e+000 0.000000e+000 0.000000e+000
      outer loop
         vertex 1.500000e+000 -4.504034e-002 -3.964049e-002
         vertex 1.500000e+000 5.088356e-003 5.978385e-002
         vertex 1.500000e+000 -5.088356e-003 5.978385e-002
      endloop
   endfacet
   facet normal 1.000000e+000 0.000000e+000 0.000000e+000
      outer loop
         vertex 1.500000e+000 -5.088356e-003 5.978385e-002
         vertex 1.500000e+000 -1.511868e-002 5.806398e-002
         vertex 1.500000e+000 -4.504034e-002 -3.964049e-002
      endloop
   endfacet
   facet normal 1.000000e+000 0.000000e+000 0.000000e+000
      outer loop
         vertex 1.500000e+000 -4.504034e-002 -3.964049e-002
         vertex 1.500000e+000 -1.511868e-002 5.806398e-002
         vertex 1.500000e+000 -2.471408e-002 5.467371e-002
      endloop
   endfacet
   facet normal 1.000000e+000 0.000000e+000 0.000000e+000
      outer loop
         vertex 1.500000e+000 -4.504034e-002 -3.964049e-002
         vertex 1.500000e+000 -2.471408e-002 5.467371e-002
         vertex 1.500000e+000 -5.109175e-002 -3.145844e-002
      endloop
   endfacet
   facet normal 1.000000e+000 0.000000e+000 0.000000e+000
      outer loop
         vertex 1.500000e+000 -5.109175e-002 -3.145844e-002
         vertex 1.500000e+000 -2.471408e-002 5.467371e-002
         vertex 1.500000e+000 -3.359849e-002 4.971058e-002
      endloop
   endfacet
   facet normal 1.000000e+000 0.000000e+000 0.000000e+000
      outer loop
         vertex 1.500000e+000 -5.109175e-002 -3.145844e-002
         vertex 1.500000e+000 -3.359849e-002 4.971058e-002
         vertex 1.500000e+000 -4.151633e-002 4.331737e-002
      endloop
   endfacet
   facet normal 1.000000e+000 0.000000e+000 0.000000e+000
      outer loop
         vertex 1.500000e+000 -4.823983e-002 3.567799e-002
         vertex 1.500000e+000 -5.357555e-002 2.701223e-002
         vertex 1.500000e+000 -5.109175e-002 -3.145844e-002
      endloop
   endfacet
   facet normal 1.000000e+000 0.000000e+000 0.000000e+000
      outer loop
         vertex 1.500000e+000 -5.109175e-002 -3.145844e-002
         vertex 1.500000e+000 -5.357555e-002 2.701223e-002
         vertex 1.500000e+000 -5.737000e-002 1.756937e-002
      endloop
   endfacet
   facet normal 1.000000e+000 0.000000e+000 0.000000e+000
      outer loop
         vertex 1.500000e+000 -5.109175e-002 -3.145844e-002
         vertex 1.500000e+000 -5.737000e-002 1.756937e-002
         vertex 1.500000e+000 -5.951402e-002 7.621069e-003
      endloop
   endfacet
   facet normal 1.000000e+000 0.000000e+000 0.000000e+000
      outer loop
         vertex 1.500000e+000 -5.951402e-002 7.621069e-003
         vertex 1.500000e+000 -5.994594e-002 -2.546472e-003
         vertex 1.500000e+000 -5.109175e-002 -3.145844e-002
      endloop
   endfacet
   facet normal 1.000000e+000 0.000000e+000 0.000000e+000
      outer loop
         vertex 1.500000e+000 -5.109175e-002 -3.145844e-002
         vertex 1.500000e+000 -5.994594e-002 -2.546472e-003
         vertex 1.500000e+000 -5.865332e-002 -1.264076e-002
      endloop
   endfacet
   facet normal 1.000000e+000 0.000000e+000 0.000000e+000
      outer loop
         vertex 1.500000e+000 -5.109175e-002 -3.145844e-002
         vertex 1.500000e+000 -5.865332e-002 -1.264076e-002
         vertex 1.500000e+000 -5.567334e-002 -2.237139e-002
      endloop
   endfacet
   facet normal 0.000000e+000 6.937734e-001 -7.201934e-001
      outer loop
         vertex 2.500000e-001 3.769320e-002 -4.668215e-002
         vertex 2.500000e-001 4.184495e-002 -4.300000e-002
         vertex 1.500000e+000 4.504034e-002 -3.964049e-002
      endloop
   endfacet
   facet normal 0.000000e+000 6.711863e-001 -7.412888e-001
      outer loop
         vertex 1.500000e+000 4.504034e-002 -3.964049e-002
         vertex 1.500000e+000 3.769320e-002 -4.668215e-002
         vertex 2.500000e-001 3.769320e-002 -4.668215e-002
      endloop
   endfacet
   facet normal 0.000000e+000 5.832456e-001 -8.122959e-001
      outer loop
         vertex 2.500000e-001 3.769320e-002 -4.668215e-002
         vertex 1.500000e+000 3.769320e-002 -4.668215e-002
         vertex 1.500000e+000 2.926170e-002 -5.238084e-002
      endloop
   endfacet
   facet normal 0.000000e+000 5.362535e-001 -8.440570e-001
      outer loop
         vertex 2.500000e-001 3.769320e-002 -4.668215e-002
         vertex 1.500000e+000 2.926170e-002 -5.238084e-002
         vertex 2.500000e-001 2.926170e-002 -5.238084e-002
      endloop
   endfacet
   facet normal 0.000000e+000 4.375775e-001 -8.991807e-001
      outer loop
         vertex 2.500000e-001 2.926170e-002 -5.238084e-002
         vertex 1.500000e+000 2.926170e-002 -5.238084e-002
         vertex 1.500000e+000 1.998839e-002 -5.657265e-002
      endloop
   endfacet
   facet normal 0.000000e+000 3.858936e-001 -9.225433e-001
      outer loop
         vertex 2.500000e-001 2.926170e-002 -5.238084e-002
         vertex 1.500000e+000 1.998839e-002 -5.657265e-002
         vertex 2.500000e-001 1.998839e-002 -5.657265e-002
      endloop
   endfacet
   facet normal 0.000000e+000 2.793211e-001 -9.601977e-001
      outer loop
         vertex 2.500000e-001 1.998839e-002 -5.657265e-002
         vertex 1.500000e+000 1.998839e-002 -5.657265e-002
         vertex 1.500000e+000 1.014005e-002 -5.913695e-002
      endloop
   endfacet
   facet normal 0.000000e+000 2.244324e-001 -9.744897e-001
      outer loop
         vertex 2.500000e-001 1.998839e-002 -5.657265e-002
         vertex 1.500000e+000 1.014005e-002 -5.913695e-002
         vertex 2.500000e-001 1.014005e-002 -5.913695e-002
      endloop
   endfacet
   facet normal 0.000000e+000 1.130291e-001 -9.935917e-001
      outer loop
         vertex 2.500000e-001 1.014005e-002 -5.913695e-002
         vertex 1.500000e+000 1.014005e-002 -5.913695e-002
         vertex 1.500000e+000 0.000000e+000 -6.000000e-002
      endloop
   endfacet
   facet normal 0.000000e+000 5.651454e-002 -9.984018e-001
      outer loop
         vertex 2.500000e-001 1.014005e-002 -5.913695e-002
         vertex 1.500000e+000 0.000000e+000 -6.000000e-002
         vertex 2.500000e-001 -1.469576e-017 -6.000000e-002
      endloop
   endfacet
   facet normal 0.000000e+000 -5.651454e-002 -9.984018e-001
      outer loop
         vertex 2.500000e-001 -1.469576e-017 -6.000000e-002
         vertex 1.500000e+000 0.000000e+000 -6.000000e-002
         vertex 1.500000e+000 -1.014005e-002 -5.913695e-002
      endloop
   endfacet
   facet normal 0.000000e+000 -1.130291e-001 -9.935917e-001
      outer loop
         vertex 2.500000e-001 -1.469576e-017 -6.000000e-002
         vertex 1.500000e+000 -1.014005e-002 -5.913695e-002
         vertex 2.500000e-001 -1.014005e-002 -5.913695e-002
      endloop
   endfacet
   facet normal 0.000000e+000 -2.244324e-001 -9.744897e-001
      outer loop
         vertex 2.500000e-001 -1.014005e-002 -5.913695e-002
         vertex 1.500000e+000 -1.014005e-002 -5.913695e-002
         vertex 1.500000e+000 -1.998839e-002 -5.657265e-002
      endloop
   endfacet
   facet normal 0.000000e+000 -2.793211e-001 -9.601977e-001
      outer loop
         vertex 2.500000e-001 -1.014005e-002 -5.913695e-002
         vertex 1.500000e+000 -1.998839e-002 -5.657265e-002
         vertex 2.500000e-001 -1.998839e-002 -5.657265e-002
      endloop
   endfacet
   facet normal 0.000000e+000 -3.858936e-001 -9.225433e-001
      outer loop
         vertex 2.500000e-001 -1.998839e-002 -5.657265e-002
         vertex 1.500000e+000 -1.998839e-002 -5.657265e-002
         vertex 1.500000e+000 -2.926170e-002 -5.238084e-002
      endloop
   endfacet
   facet normal 0.000000e+000 -4.375775e-001 -8.991807e-001
      outer loop
         vertex 2.500000e-001 -1.998839e-002 -5.657265e-002
         vertex 1.500000e+000 -2.926170e-002 -5.238084e-002
         vertex 2.500000e-001 -2.926170e-002 -5.238084e-002
      endloop
   endfacet
   facet normal 0.000000e+000 -5.362535e-001 -8.440570e-001
      outer loop
         vertex 2.500000e-001 -2.926170e-002 -5.238084e-002
         vertex 1.500000e+000 -2.926170e-002 -5.238084e-002
         vertex 1.500000e+000 -3.769320e-002 -4.668215e-002
      endloop
   endfacet
   facet normal 0.000000e+000 -5.832456e-001 -8.122959e-001
      outer loop
         vertex 2.500000e-001 -2.926170e-002 -5.238084e-002
         vertex 1.500000e+000 -3.769320e-002 -4.668215e-002
         vertex 2.500000e-001 -3.769320e-002 -4.668215e-002
      endloop
   endfacet
   facet normal 0.000000e+000 -7.156430e-001 -6.984662e-001
      outer loop
         vertex 0.000000e+000 -4.504034e-002 -3.964049e-002
         vertex 0.000000e+000 -4.184495e-002 -4.300000e-002
         vertex 2.500000e-001 -4.184495e-002 -4.300000e-002
      endloop
   endfacet
   facet normal 0.000000e+000 -6.519052e-001 -7.583005e-001
      outer loop
         vertex 2.500000e-001 -3.769320e-002 -4.668215e-002
         vertex 1.500000e+000 -3.769320e-002 -4.668215e-002
         vertex 2.500000e-001 -4.184495e-002 -4.300000e-002
      endloop
   endfacet
   facet normal 0.000000e+000 -6.937734e-001 -7.201934e-001
      outer loop
         vertex 2.500000e-001 -4.184495e-002 -4.300000e-002
         vertex 1.500000e+000 -3.769320e-002 -4.668215e-002
         vertex 1.500000e+000 -4.504034e-002 -3.964049e-002
      endloop
   endfacet
   facet normal 0.000000e+000 -7.334069e-001 -6.797898e-001
      outer loop
         vertex 2.500000e-001 -4.184495e-002 -4.300000e-002
         vertex 1.500000e+000 -4.504034e-002 -3.964049e-002
         vertex 0.000000e+000 -4.504034e-002 -3.964049e-002
      endloop
   endfacet
   facet normal 0.000000e+000 -7.868103e-001 -6.171949e-001
      outer loop
         vertex 0.000000e+000 -4.504034e-002 -3.964049e-002
         vertex 1.500000e+000 -4.504034e-002 -3.964049e-002
         vertex 1.500000e+000 -5.109175e-002 -3.145844e-002
      endloop
   endfacet
   facet normal 0.000000e+000 -8.205372e-001 -5.715931e-001
      outer loop
         vertex 0.000000e+000 -4.504034e-002 -3.964049e-002
         vertex 1.500000e+000 -5.109175e-002 -3.145844e-002
         vertex 0.000000e+000 -5.109175e-002 -3.145844e-002
      endloop
   endfacet
   facet normal 0.000000e+000 -8.797992e-001 -4.753455e-001
      outer loop
         vertex 0.000000e+000 -5.109175e-002 -3.145844e-002
         vertex 1.500000e+000 -5.109175e-002 -3.145844e-002
         vertex 1.500000e+000 -5.567334e-002 -2.237139e-002
      endloop
   endfacet
   facet normal 0.000000e+000 -9.053342e-001 -4.246998e-001
      outer loop
         vertex 0.000000e+000 -5.109175e-002 -3.145844e-002
         vertex 1.500000e+000 -5.567334e-002 -2.237139e-002
         vertex 0.000000e+000 -5.567334e-002 -2.237139e-002
      endloop
   endfacet
   facet normal 0.000000e+000 -9.474779e-001 -3.198213e-001
      outer loop
         vertex 0.000000e+000 -5.567334e-002 -2.237139e-002
         vertex 1.500000e+000 -5.567334e-002 -2.237139e-002
         vertex 1.500000e+000 -5.865332e-002 -1.264076e-002
      endloop
   endfacet
   facet normal 0.000000e+000 -9.640865e-001 -2.655886e-001
      outer loop
         vertex 0.000000e+000 -5.567334e-002 -2.237139e-002
         vertex 1.500000e+000 -5.865332e-002 -1.264076e-002
         vertex 0.000000e+000 -5.865332e-002 -1.264076e-002
      endloop
   endfacet
   facet normal 0.000000e+000 -9.878993e-001 -1.550965e-001
      outer loop
         vertex 0.000000e+000 -5.865332e-002 -1.264076e-002
         vertex 1.500000e+000 -5.865332e-002 -1.264076e-002
         vertex 1.500000e+000 -5.994594e-002 -2.546472e-003
      endloop
   endfacet
   facet normal 0.000000e+000 -9.951036e-001 -9.883699e-002
      outer loop
         vertex 0.000000e+000 -5.865332e-002 -1.264076e-002
         vertex 1.500000e+000 -5.994594e-002 -2.546472e-003
         vertex 0.000000e+000 -5.994594e-002 -2.546472e-003
      endloop
   endfacet
   facet normal 0.000000e+000 -9.999007e-001 1.409025e-002
      outer loop
         vertex 0.000000e+000 -5.994594e-002 -2.546472e-003
         vertex 1.500000e+000 -5.994594e-002 -2.546472e-003
         vertex 1.500000e+000 -5.951402e-002 7.621069e-003
      endloop
   endfacet
   facet normal 0.000000e+000 -9.974935e-001 7.075802e-002
      outer loop
         vertex 0.000000e+000 -5.994594e-002 -2.546472e-003
         vertex 1.500000e+000 -5.951402e-002 7.621069e-003
         vertex 0.000000e+000 -5.951402e-002 7.621069e-003
      endloop
   endfacet
   facet normal 0.000000e+000 -9.831368e-001 1.828716e-001
      outer loop
         vertex 0.000000e+000 -5.951402e-002 7.621069e-003
         vertex 1.500000e+000 -5.951402e-002 7.621069e-003
         vertex 1.500000e+000 -5.737000e-002 1.756937e-002
      endloop
   endfacet
   facet normal 0.000000e+000 -9.711873e-001 2.383175e-001
      outer loop
         vertex 0.000000e+000 -5.951402e-002 7.621069e-003
         vertex 1.500000e+000 -5.737000e-002 1.756937e-002
         vertex 0.000000e+000 -5.737000e-002 1.756937e-002
      endloop
   endfacet
   facet normal 0.000000e+000 -9.380898e-001 3.463921e-001
      outer loop
         vertex 0.000000e+000 -5.737000e-002 1.756937e-002
         vertex 1.500000e+000 -5.737000e-002 1.756937e-002
         vertex 1.500000e+000 -5.357555e-002 2.701223e-002
      endloop
   endfacet
   facet normal 0.000000e+000 -9.169418e-001 3.990209e-001
      outer loop
         vertex 0.000000e+000 -5.737000e-002 1.756937e-002
         vertex 1.500000e+000 -5.357555e-002 2.701223e-002
         vertex 0.000000e+000 -5.357555e-002 2.701223e-002
      endloop
   endfacet
   facet normal 0.000000e+000 -8.660557e-001 4.999475e-001
      outer loop
         vertex 0.000000e+000 -5.357555e-002 2.701223e-002
         vertex 1.500000e+000 -5.357555e-002 2.701223e-002
         vertex 1.500000e+000 -4.823983e-002 3.567799e-002
      endloop
   endfacet
   facet normal 0.000000e+000 -8.363176e-001 5.482453e-001
      outer loop
         vertex 0.000000e+000 -5.357555e-002 2.701223e-002
         vertex 1.500000e+000 -4.823983e-002 3.567799e-002
         vertex 0.000000e+000 -4.823983e-002 3.567799e-002
      endloop
   endfacet
   facet normal 0.000000e+000 -7.691067e-001 6.391203e-001
      outer loop
         vertex 0.000000e+000 -4.823983e-002 3.567799e-002
         vertex 1.500000e+000 -4.823983e-002 3.567799e-002
         vertex 1.500000e+000 -4.151633e-002 4.331737e-002
      endloop
   endfacet
   facet normal 0.000000e+000 -7.316340e-001 6.816977e-001
      outer loop
         vertex 0.000000e+000 -4.823983e-002 3.567799e-002
         vertex 1.500000e+000 -4.151633e-002 4.331737e-002
         vertex 0.000000e+000 -4.151633e-002 4.331737e-002
      endloop
   endfacet
   facet normal 0.000000e+000 -6.500320e-001 7.599069e-001
      outer loop
         vertex 0.000000e+000 -4.151633e-002 4.331737e-002
         vertex 1.500000e+000 -4.151633e-002 4.331737e-002
         vertex 1.500000e+000 -3.359849e-002 4.971058e-002
      endloop
   endfacet
   facet normal 0.000000e+000 -6.059027e-001 7.955388e-001
      outer loop
         vertex 0.000000e+000 -4.151633e-002 4.331737e-002
         vertex 1.500000e+000 -3.359849e-002 4.971058e-002
         vertex 0.000000e+000 -3.359849e-002 4.971058e-002
      endloop
   endfacet
   facet normal 0.000000e+000 -5.122570e-001 8.588322e-001
      outer loop
         vertex 0.000000e+000 -3.359849e-002 4.971058e-002
         vertex 1.500000e+000 -3.359849e-002 4.971058e-002
         vertex 1.500000e+000 -2.471408e-002 5.467371e-002
      endloop
   endfacet
   facet normal 0.000000e+000 -4.627406e-001 8.864937e-001
      outer loop
         vertex 0.000000e+000 -3.359849e-002 4.971058e-002
         vertex 1.500000e+000 -2.471408e-002 5.467371e-002
         vertex 0.000000e+000 -2.471408e-002 5.467371e-002
      endloop
   endfacet
   facet normal 0.000000e+000 -3.597453e-001 9.330506e-001
      outer loop
         vertex 0.000000e+000 -2.471408e-002 5.467371e-002
         vertex 1.500000e+000 -2.471408e-002 5.467371e-002
         vertex 1.500000e+000 -1.511868e-002 5.806398e-002
      endloop
   endfacet
   facet normal 0.000000e+000 -3.062663e-001 9.519458e-001
      outer loop
         vertex 0.000000e+000 -2.471408e-002 5.467371e-002
         vertex 1.500000e+000 -1.511868e-002 5.806398e-002
         vertex 0.000000e+000 -1.511868e-002 5.806398e-002
      endloop
   endfacet
   facet normal 0.000000e+000 -1.968844e-001 9.804267e-001
      outer loop
         vertex 0.000000e+000 -1.511868e-002 5.806398e-002
         vertex 1.500000e+000 -1.511868e-002 5.806398e-002
         vertex 1.500000e+000 -5.088356e-003 5.978385e-002
      endloop
   endfacet
   facet normal 0.000000e+000 -1.409813e-001 9.900123e-001
      outer loop
         vertex 0.000000e+000 -1.511868e-002 5.806398e-002
         vertex 1.500000e+000 -5.088356e-003 5.978385e-002
         vertex 0.000000e+000 -5.088356e-003 5.978385e-002
      endloop
   endfacet
   facet normal 0.000000e+000 -2.835944e-002 9.995977e-001
      outer loop
         vertex 0.000000e+000 -5.088356e-003 5.978385e-002
         vertex 1.500000e+000 -5.088356e-003 5.978385e-002
         vertex 1.500000e+000 5.088356e-003 5.978385e-002
      endloop
   endfacet
   facet normal 0.000000e+000 2.835944e-002 9.995977e-001
      outer loop
         vertex 0.000000e+000 -5.088356e-003 5.978385e-002
         vertex 1.500000e+000 5.088356e-003 5.978385e-002
         vertex 0.000000e+000 5.088356e-003 5.978385e-002
      endloop
   endfacet
   facet normal 0.000000e+000 1.409813e-001 9.900123e-001
      outer loop
         vertex 0.000000e+000 5.088356e-003 5.978385e-002
         vertex 1.500000e+000 5.088356e-003 5.978385e-002
         vertex 1.500000e+000 1.511868e-002 5.806398e-002
      endloop
   endfacet
   facet normal 0.000000e+000 1.968844e-001 9.804267e-001
      outer loop
         vertex 0.000000e+000 5.088356e-003 5.978385e-002
         vertex 1.500000e+000 1.511868e-002 5.806398e-002
         vertex 0.000000e+000 1.511868e-002 5.806398e-002
      endloop
   endfacet
   facet normal 0.000000e+000 3.062663e-001 9.519458e-001
      outer loop
         vertex 0.000000e+000 1.511868e-002 5.806398e-002
         vertex 1.500000e+000 1.511868e-002 5.806398e-002
         vertex 1.500000e+000 2.471408e-002 5.467371e-002
      endloop
   endfacet
   facet normal 0.000000e+000 3.597453e-001 9.330506e-001
      outer loop
         vertex 0.000000e+000 1.511868e-002 5.806398e-002
         vertex 1.500000e+000 2.471408e-002 5.467371e-002
         vertex 0.000000e+000 2.471408e-002 5.467371e-002
      endloop
   endfacet
   facet normal 0.000000e+000 4.627406e-001 8.864937e-001
      outer loop
         vertex 0.000000e+000 2.471408e-002 5.467371e-002
         vertex 1.500000e+000 2.471408e-002 5.467371e-002
         vertex 1.500000e+000 3.359849e-002 4.971058e-002
      endloop
   endfacet
   facet normal 0.000000e+000 5.122570e-001 8.588322e-001
      outer loop
         vertex 0.000000e+000 2.471408e-002 5.467371e-002
         vertex 1.500000e+000 3.359849e-002 4.971058e-002
         vertex 0.000000e+000 3.359849e-002 4.971058e-002
      endloop
   endfacet
   facet normal 0.000000e+000 6.059027e-001 7.955388e-001
      outer loop
         vertex 0.000000e+000 3.359849e-002 4.971058e-002
         vertex 1.500000e+000 3.359849e-002 4.971058e-002
         vertex 1.500000e+000 4.151633e-002 4.331737e-002
      endloop
   endfacet
   facet normal 0.000000e+000 6.500320e-001 7.599069e-001
      outer loop
         vertex 0.000000e+000 3.359849e-002 4.971058e-002
         vertex 1.500000e+000 4.151633e-002 4.331737e-002
         vertex 0.000000e+000 4.151633e-002 4.331737e-002
      endloop
   endfacet
   facet normal 0.000000e+000 7.316340e-001 6.816977e-001
      outer loop
         vertex 0.000000e+000 4.151633e-002 4.331737e-002
         vertex 1.500000e+000 4.151633e-002 4.331737e-002
         vertex 1.500000e+000 4.823983e-002 3.567799e-002
      endloop
   endfacet
   facet normal 0.000000e+000 7.691067e-001 6.391203e-001
      outer loop
         vertex 0.000000e+000 4.151633e-002 4.331737e-002
         vertex 1.500000e+000 4.823983e-002 3.567799e-002
         vertex 0.000000e+000 4.823983e-002 3.567799e-002
      endloop
   endfacet
   facet normal 0.000000e+000 8.363176e-001 5.482453e-001
      outer loop
         vertex 0.000000e+000 4.823983e-002 3.567799e-002
         vertex 1.500000e+000 4.823983e-002 3.567799e-002
         vertex 1.500000e+000 5.357555e-002 2.701223e-002
      endloop
   endfacet
   facet normal 0.000000e+000 8.660557e-001 4.999475e-001
      outer loop
         vertex 0.000000e+000 4.823983e-002 3.567799e-002
         vertex 1.500000e+000 5.357555e-002 2.701223e-002
         vertex 0.000000e+000 5.357555e-002 2.701223e-002
      endloop
   endfacet
   facet normal 0.000000e+000 9.169418e-001 3.990209e-001
      outer loop
         vertex 0.000000e+000 5.357555e-002 2.701223e-002
         vertex 1.500000e+000 5.357555e-002 2.701223e-002
         vertex 1.500000e+000 5.737000e-002 1.756937e-002
      endloop
   endfacet
   facet normal 0.000000e+000 9.380898e-001 3.463921e-001
      outer loop
         vertex 0.000000e+000 5.357555e-002 2.701223e-002
         vertex 1.500000e+000 5.737000e-002 1.756937e-002
         vertex 0.000000e+000 5.737000e-002 1.756937e-002
      endloop
   endfacet
   facet normal 0.000000e+000 9.711873e-001 2.383175e-001
      outer loop
         vertex 0.000000e+000 5.737000e-002 1.756937e-002
         vertex 1.500000e+000 5.737000e-002 1.756937e-002
         vertex 1.500000e+000 5.951402e-002 7.621069e-003
      endloop
   endfacet
   facet normal 0.000000e+000 9.831368e-001 1.828716e-001
      outer loop
         vertex 0.000000e+000 5.737000e-002 1.756937e-002
         vertex 1.500000e+000 5.951402e-002 7.621069e-003
         vertex 0.000000e+000 5.951402e-002 7.621069e-003
      endloop
   endfacet
   facet normal 0.000000e+000 9.974935e-001 7.075802e-002
      outer loop
         vertex 0.000000e+000 5.951402e-002 7.621069e-003
         vertex 1.500000e+000 5.951402e-002 7.621069e-003
         vertex 1.500000e+000 5.994594e-002 -2.546472e-003
      endloop
   endfacet
   facet normal 0.000000e+000 9.999007e-001 1.409025e-002
      outer loop
         vertex 0.000000e+000 5.951402e-002 7.621069e-003
         vertex 1.500000e+000 5.994594e-002 -2.546472e-003
         vertex 0.000000e+000 5.994594e-002 -2.546472e-003
      endloop
   endfacet
   facet normal 0.000000e+000 9.951036e-001 -9.883699e-002
      outer loop
         vertex 0.000000e+000 5.994594e-002 -2.546472e-003
         vertex 1.500000e+000 5.994594e-002 -2.546472e-003
         vertex 1.500000e+000 5.865332e-002 -1.264076e-002
      endloop
   endfacet
   facet normal 0.000000e+000 9.878993e-001 -1.550965e-001
      outer loop
         vertex 0.000000e+000 5.994594e-002 -2.546472e-003
         vertex 1.500000e+000 5.865332e-002 -1.264076e-002
         vertex 0.000000e+000 5.865332e-002 -1.264076e-002
      endloop
   endfacet
   facet normal 0.000000e+000 9.640865e-001 -2.655886e-001
      outer loop
         vertex 0.000000e+000 5.865332e-002 -1.264076e-002
         vertex 1.500000e+000 5.865332e-002 -1.264076e-002
         vertex 1.500000e+000 5.567334e-002 -2.237139e-002
      endloop
   endfacet
   facet normal 0.000000e+000 9.474779e-001 -3.198213e-001
      outer loop
         vertex 0.000000e+000 5.865332e-002 -1.264076e-002
         vertex 1.500000e+000 5.567334e-002 -2.237139e-002
         vertex 0.000000e+000 5.567334e-002 -2.237139e-002
      endloop
   endfacet
   facet normal 0.000000e+000 9.053342e-001 -4.246998e-001
      outer loop
         vertex 0.000000e+000 5.567334e-002 -2.237139e-002
         vertex 1.500000e+000 5.567334e-002 -2.237139e-002
         vertex 1.500000e+000 5.109175e-002 -3.145844e-002
      endloop
   endfacet
   facet normal 0.000000e+000 8.797992e-001 -4.753455e-001
      outer loop
         vertex 0.000000e+000 5.567334e-002 -2.237139e-002
         vertex 1.500000e+000 5.109175e-002 -3.145844e-002
         vertex 0.000000e+000 5.109175e-002 -3.145844e-002
      endloop
   endfacet
   facet normal 0.000000e+000 8.205372e-001 -5.715931e-001
      outer loop
         vertex 0.000000e+000 5.109175e-002 -3.145844e-002
         vertex 1.500000e+000 5.109175e-002 -3.145844e-002
         vertex 1.500000e+000 4.504034e-002 -3.964049e-002
      endloop
   endfacet
   facet normal 0.000000e+000 7.868103e-001 -6.171949e-001
      outer loop
         vertex 0.000000e+000 5.109175e-002 -3.145844e-002
         vertex 1.500000e+000 4.504034e-002 -3.964049e-002
         vertex 0.000000e+000 4.504034e-002 -3.964049e-002
      endloop
   endfacet
   facet normal 0.000000e+000 7.334069e-001 -6.797898e-001
      outer loop
         vertex 0.000000e+000 4.504034e-002 -3.964049e-002
         vertex 1.500000e+000 4.504034e-002 -3.964049e-002
         vertex 2.500000e-001 4.184495e-002 -4.300000e-002
      endloop
   endfacet
   facet normal 0.000000e+000 7.156430e-001 -6.984662e-001
      outer loop
         vertex 0.000000e+000 4.504034e-002 -3.964049e-002
         vertex 2.500000e-001 4.184495e-002 -4.300000e-002
         vertex 0.000000e+000 4.184495e-002 -4.300000e-002
      endloop
   endfacet
endsolid