solid TUBE_Default_sldprt
   facet normal 0.000000e+000 5.651454e-002 -9.984018e-001
      outer loop
         vertex 3.250000e+000 -5.239025e-003 3.055409e-002
         vertex 0.000000e+000 -7.592810e-018 3.100000e-002
         vertex 3.250000e+000 -7.592810e-018 3.100000e-002
      endloop
   endfacet
   facet normal 0.000000e+000 -5.651454e-002 -9.984018e-001
      outer loop
         vertex 3.250000e+000 -7.592810e-018 3.100000e-002
         vertex 0.000000e+000 -7.592810e-018 3.100000e-002
         vertex 0.000000e+000 5.239025e-003 3.055409e-002
      endloop
   endfacet
   facet normal 0.000000e+000 -1.130291e-001 -9.935917e-001
      outer loop
         vertex 3.250000e+000 -7.592810e-018 3.100000e-002
         vertex 0.000000e+000 5.239025e-003 3.055409e-002
         vertex 3.250000e+000 5.239025e-003 3.055409e-002
      endloop
   endfacet
   facet normal 0.000000e+000 -2.244324e-001 -9.744897e-001
      outer loop
         vertex 3.250000e+000 5.239025e-003 3.055409e-002
         vertex 0.000000e+000 5.239025e-003 3.055409e-002
         vertex 0.000000e+000 1.032733e-002 2.922920e-002
      endloop
   endfacet
   facet normal 0.000000e+000 -2.793211e-001 -9.601977e-001
      outer loop
         vertex 3.250000e+000 5.239025e-003 3.055409e-002
         vertex 0.000000e+000 1.032733e-002 2.922920e-002
         vertex 3.250000e+000 1.032733e-002 2.922920e-002
      endloop
   endfacet
   facet normal 0.000000e+000 -3.858936e-001 -9.225433e-001
      outer loop
         vertex 3.250000e+000 1.032733e-002 2.922920e-002
         vertex 0.000000e+000 1.032733e-002 2.922920e-002
         vertex 0.000000e+000 1.511854e-002 2.706344e-002
      endloop
   endfacet
   facet normal 0.000000e+000 -4.375775e-001 -8.991807e-001
      outer loop
         vertex 3.250000e+000 1.032733e-002 2.922920e-002
         vertex 0.000000e+000 1.511854e-002 2.706344e-002
         vertex 3.250000e+000 1.511854e-002 2.706344e-002
      endloop
   endfacet
   facet normal 0.000000e+000 -5.362535e-001 -8.440570e-001
      outer loop
         vertex 3.250000e+000 1.511854e-002 2.706344e-002
         vertex 0.000000e+000 1.511854e-002 2.706344e-002
         vertex 0.000000e+000 1.947482e-002 2.411911e-002
      endloop
   endfacet
   facet normal 0.000000e+000 -5.832456e-001 -8.122959e-001
      outer loop
         vertex 3.250000e+000 1.511854e-002 2.706344e-002
         vertex 0.000000e+000 1.947482e-002 2.411911e-002
         vertex 3.250000e+000 1.947482e-002 2.411911e-002
      endloop
   endfacet
   facet normal 0.000000e+000 -6.711863e-001 -7.412888e-001
      outer loop
         vertex 3.250000e+000 1.947482e-002 2.411911e-002
         vertex 0.000000e+000 1.947482e-002 2.411911e-002
         vertex 0.000000e+000 2.327084e-002 2.048092e-002
      endloop
   endfacet
   facet normal 0.000000e+000 -7.121348e-001 -7.020428e-001
      outer loop
         vertex 3.250000e+000 1.947482e-002 2.411911e-002
         vertex 0.000000e+000 2.327084e-002 2.048092e-002
         vertex 3.250000e+000 2.327084e-002 2.048092e-002
      endloop
   endfacet
   facet normal 0.000000e+000 -7.868103e-001 -6.171949e-001
      outer loop
         vertex 3.250000e+000 2.327084e-002 2.048092e-002
         vertex 0.000000e+000 2.327084e-002 2.048092e-002
         vertex 0.000000e+000 2.639740e-002 1.625353e-002
      endloop
   endfacet
   facet normal 0.000000e+000 -8.205372e-001 -5.715931e-001
      outer loop
         vertex 3.250000e+000 2.327084e-002 2.048092e-002
         vertex 0.000000e+000 2.639740e-002 1.625353e-002
         vertex 3.250000e+000 2.639740e-002 1.625353e-002
      endloop
   endfacet
   facet normal 0.000000e+000 -8.797992e-001 -4.753455e-001
      outer loop
         vertex 3.250000e+000 2.639740e-002 1.625353e-002
         vertex 0.000000e+000 2.639740e-002 1.625353e-002
         vertex 0.000000e+000 2.876456e-002 1.155855e-002
      endloop
   endfacet
   facet normal 0.000000e+000 -9.053342e-001 -4.246998e-001
      outer loop
         vertex 3.250000e+000 2.639740e-002 1.625353e-002
         vertex 0.000000e+000 2.876456e-002 1.155855e-002
         vertex 3.250000e+000 2.876456e-002 1.155855e-002
      endloop
   endfacet
   facet normal 0.000000e+000 -9.474779e-001 -3.198213e-001
      outer loop
         vertex 3.250000e+000 2.876456e-002 1.155855e-002
         vertex 0.000000e+000 2.876456e-002 1.155855e-002
         vertex 0.000000e+000 3.030421e-002 6.531057e-003
      endloop
   endfacet
   facet normal 0.000000e+000 -9.640865e-001 -2.655886e-001
      outer loop
         vertex 3.250000e+000 2.876456e-002 1.155855e-002
         vertex 0.000000e+000 3.030421e-002 6.531057e-003
         vertex 3.250000e+000 3.030421e-002 6.531057e-003
      endloop
   endfacet
   facet normal 0.000000e+000 -9.878993e-001 -1.550965e-001
      outer loop
         vertex 3.250000e+000 3.030421e-002 6.531057e-003
         vertex 0.000000e+000 3.030421e-002 6.531057e-003
         vertex 0.000000e+000 3.097207e-002 1.315677e-003
      endloop
   endfacet
   facet normal 0.000000e+000 -9.951036e-001 -9.883699e-002
      outer loop
         vertex 3.250000e+000 3.030421e-002 6.531057e-003
         vertex 0.000000e+000 3.097207e-002 1.315677e-003
         vertex 3.250000e+000 3.097207e-002 1.315677e-003
      endloop
   endfacet
   facet normal 0.000000e+000 -9.999007e-001 1.409025e-002
      outer loop
         vertex 3.250000e+000 3.097207e-002 1.315677e-003
         vertex 0.000000e+000 3.097207e-002 1.315677e-003
         vertex 0.000000e+000 3.074891e-002 -3.937552e-003
      endloop
   endfacet
   facet normal 0.000000e+000 -9.974935e-001 7.075802e-002
      outer loop
         vertex 3.250000e+000 3.097207e-002 1.315677e-003
         vertex 0.000000e+000 3.074891e-002 -3.937552e-003
         vertex 3.250000e+000 3.074891e-002 -3.937552e-003
      endloop
   endfacet
   facet normal 0.000000e+000 -9.831368e-001 1.828716e-001
      outer loop
         vertex 3.250000e+000 3.074891e-002 -3.937552e-003
         vertex 0.000000e+000 3.074891e-002 -3.937552e-003
         vertex 0.000000e+000 2.964117e-002 -9.077506e-003
      endloop
   endfacet
   facet normal 0.000000e+000 -9.711873e-001 2.383175e-001
      outer loop
         vertex 3.250000e+000 3.074891e-002 -3.937552e-003
         vertex 0.000000e+000 2.964117e-002 -9.077506e-003
         vertex 3.250000e+000 2.964117e-002 -9.077506e-003
      endloop
   endfacet
   facet normal 0.000000e+000 -9.380898e-001 3.463921e-001
      outer loop
         vertex 3.250000e+000 2.964117e-002 -9.077506e-003
         vertex 0.000000e+000 2.964117e-002 -9.077506e-003
         vertex 0.000000e+000 2.768070e-002 -1.395632e-002
      endloop
   endfacet
   facet normal 0.000000e+000 -9.169418e-001 3.990209e-001
      outer loop
         vertex 3.250000e+000 2.964117e-002 -9.077506e-003
         vertex 0.000000e+000 2.768070e-002 -1.395632e-002
         vertex 3.250000e+000 2.768070e-002 -1.395632e-002
      endloop
   endfacet
   facet normal 0.000000e+000 -8.660557e-001 4.999475e-001
      outer loop
         vertex 3.250000e+000 2.768070e-002 -1.395632e-002
         vertex 0.000000e+000 2.768070e-002 -1.395632e-002
         vertex 0.000000e+000 2.492391e-002 -1.843363e-002
      endloop
   endfacet
   facet normal 0.000000e+000 -8.363176e-001 5.482453e-001
      outer loop
         vertex 3.250000e+000 2.768070e-002 -1.395632e-002
         vertex 0.000000e+000 2.492391e-002 -1.843363e-002
         vertex 3.250000e+000 2.492391e-002 -1.843363e-002
      endloop
   endfacet
   facet normal 0.000000e+000 -7.691067e-001 6.391203e-001
      outer loop
         vertex 3.250000e+000 2.492391e-002 -1.843363e-002
         vertex 0.000000e+000 2.492391e-002 -1.843363e-002
         vertex 0.000000e+000 2.145011e-002 -2.238064e-002
      endloop
   endfacet
   facet normal 0.000000e+000 -7.316340e-001 6.816977e-001
      outer loop
         vertex 3.250000e+000 2.492391e-002 -1.843363e-002
         vertex 0.000000e+000 2.145011e-002 -2.238064e-002
         vertex 3.250000e+000 2.145011e-002 -2.238064e-002
      endloop
   endfacet
   facet normal 0.000000e+000 -6.500320e-001 7.599069e-001
      outer loop
         vertex 3.250000e+000 2.145011e-002 -2.238064e-002
         vertex 0.000000e+000 2.145011e-002 -2.238064e-002
         vertex 0.000000e+000 1.735922e-002 -2.568380e-002
      endloop
   endfacet
   facet normal 0.000000e+000 -6.059027e-001 7.955388e-001
      outer loop
         vertex 3.250000e+000 2.145011e-002 -2.238064e-002
         vertex 0.000000e+000 1.735922e-002 -2.568380e-002
         vertex 3.250000e+000 1.735922e-002 -2.568380e-002
      endloop
   endfacet
   facet normal 0.000000e+000 -5.122570e-001 8.588322e-001
      outer loop
         vertex 3.250000e+000 1.735922e-002 -2.568380e-002
         vertex 0.000000e+000 1.735922e-002 -2.568380e-002
         vertex 0.000000e+000 1.276894e-002 -2.824808e-002
      endloop
   endfacet
   facet normal 0.000000e+000 -4.627406e-001 8.864937e-001
      outer loop
         vertex 3.250000e+000 1.735922e-002 -2.568380e-002
         vertex 0.000000e+000 1.276894e-002 -2.824808e-002
         vertex 3.250000e+000 1.276894e-002 -2.824808e-002
      endloop
   endfacet
   facet normal 0.000000e+000 -3.597453e-001 9.330506e-001
      outer loop
         vertex 3.250000e+000 1.276894e-002 -2.824808e-002
         vertex 0.000000e+000 1.276894e-002 -2.824808e-002
         vertex 0.000000e+000 7.811320e-003 -2.999972e-002
      endloop
   endfacet
   facet normal 0.000000e+000 -3.062663e-001 9.519458e-001
      outer loop
         vertex 3.250000e+000 1.276894e-002 -2.824808e-002
         vertex 0.000000e+000 7.811320e-003 -2.999972e-002
         vertex 3.250000e+000 7.811320e-003 -2.999972e-002
      endloop
   endfacet
   facet normal 0.000000e+000 -1.968844e-001 9.804267e-001
      outer loop
         vertex 3.250000e+000 7.811320e-003 -2.999972e-002
         vertex 0.000000e+000 7.811320e-003 -2.999972e-002
         vertex 0.000000e+000 2.628984e-003 -3.088832e-002
      endloop
   endfacet
   facet normal 0.000000e+000 -1.409813e-001 9.900123e-001
      outer loop
         vertex 3.250000e+000 7.811320e-003 -2.999972e-002
         vertex 0.000000e+000 2.628984e-003 -3.088832e-002
         vertex 3.250000e+000 2.628984e-003 -3.088832e-002
      endloop
   endfacet
   facet normal 0.000000e+000 -2.835944e-002 9.995977e-001
      outer loop
         vertex 3.250000e+000 2.628984e-003 -3.088832e-002
         vertex 0.000000e+000 2.628984e-003 -3.088832e-002
         vertex 0.000000e+000 -2.628984e-003 -3.088832e-002
      endloop
   endfacet
   facet normal 0.000000e+000 2.835944e-002 9.995977e-001
      outer loop
         vertex 3.250000e+000 2.628984e-003 -3.088832e-002
         vertex 0.000000e+000 -2.628984e-003 -3.088832e-002
         vertex 3.250000e+000 -2.628984e-003 -3.088832e-002
      endloop
   endfacet
   facet normal 0.000000e+000 1.409813e-001 9.900123e-001
      outer loop
         vertex 3.250000e+000 -2.628984e-003 -3.088832e-002
         vertex 0.000000e+000 -2.628984e-003 -3.088832e-002
         vertex 0.000000e+000 -7.811320e-003 -2.999972e-002
      endloop
   endfacet
   facet normal 0.000000e+000 1.968844e-001 9.804267e-001
      outer loop
         vertex 3.250000e+000 -2.628984e-003 -3.088832e-002
         vertex 0.000000e+000 -7.811320e-003 -2.999972e-002
         vertex 3.250000e+000 -7.811320e-003 -2.999972e-002
      endloop
   endfacet
   facet normal 0.000000e+000 3.062663e-001 9.519458e-001
      outer loop
         vertex 3.250000e+000 -7.811320e-003 -2.999972e-002
         vertex 0.000000e+000 -7.811320e-003 -2.999972e-002
         vertex 0.000000e+000 -1.276894e-002 -2.824808e-002
      endloop
   endfacet
   facet normal 0.000000e+000 3.597453e-001 9.330506e-001
      outer loop
         vertex 3.250000e+000 -7.811320e-003 -2.999972e-002
         vertex 0.000000e+000 -1.276894e-002 -2.824808e-002
         vertex 3.250000e+000 -1.276894e-002 -2.824808e-002
      endloop
   endfacet
   facet normal 0.000000e+000 4.627406e-001 8.864937e-001
      outer loop
         vertex 3.250000e+000 -1.276894e-002 -2.824808e-002
         vertex 0.000000e+000 -1.276894e-002 -2.824808e-002
         vertex 0.000000e+000 -1.735922e-002 -2.568380e-002
      endloop
   endfacet
   facet normal 0.000000e+000 5.122570e-001 8.588322e-001
      outer loop
         vertex 3.250000e+000 -1.276894e-002 -2.824808e-002
         vertex 0.000000e+000 -1.735922e-002 -2.568380e-002
         vertex 3.250000e+000 -1.735922e-002 -2.568380e-002
      endloop
   endfacet
   facet normal 0.000000e+000 6.059027e-001 7.955388e-001
      outer loop
         vertex 3.250000e+000 -1.735922e-002 -2.568380e-002
         vertex 0.000000e+000 -1.735922e-002 -2.568380e-002
         vertex 0.000000e+000 -2.145011e-002 -2.238064e-002
      endloop
   endfacet
   facet normal 0.000000e+000 6.500320e-001 7.599069e-001
      outer loop
         vertex 3.250000e+000 -1.735922e-002 -2.568380e-002
         vertex 0.000000e+000 -2.145011e-002 -2.238064e-002
         vertex 3.250000e+000 -2.145011e-002 -2.238064e-002
      endloop
   endfacet
   facet normal 0.000000e+000 7.316340e-001 6.816977e-001
      outer loop
         vertex 3.250000e+000 -2.145011e-002 -2.238064e-002
         vertex 0.000000e+000 -2.145011e-002 -2.238064e-002
         vertex 0.000000e+000 -2.492391e-002 -1.843363e-002
      endloop
   endfacet
   facet normal 0.000000e+000 7.691067e-001 6.391203e-001
      outer loop
         vertex 3.250000e+000 -2.145011e-002 -2.238064e-002
         vertex 0.000000e+000 -2.492391e-002 -1.843363e-002
         vertex 3.250000e+000 -2.492391e-002 -1.843363e-002
      endloop
   endfacet
   facet normal 0.000000e+000 8.363176e-001 5.482453e-001
      outer loop
         vertex 3.250000e+000 -2.492391e-002 -1.843363e-002
         vertex 0.000000e+000 -2.492391e-002 -1.843363e-002
         vertex 0.000000e+000 -2.768070e-002 -1.395632e-002
      endloop
   endfacet
   facet normal 0.000000e+000 8.660557e-001 4.999475e-001
      outer loop
         vertex 3.250000e+000 -2.492391e-002 -1.843363e-002
         vertex 0.000000e+000 -2.768070e-002 -1.395632e-002
         vertex 3.250000e+000 -2.768070e-002 -1.395632e-002
      endloop
   endfacet
   facet normal 0.000000e+000 9.169418e-001 3.990209e-001
      outer loop
         vertex 3.250000e+000 -2.768070e-002 -1.395632e-002
         vertex 0.000000e+000 -2.768070e-002 -1.395632e-002
         vertex 0.000000e+000 -2.964117e-002 -9.077506e-003
      endloop
   endfacet
   facet normal 0.000000e+000 9.380898e-001 3.463921e-001
      outer loop
         vertex 3.250000e+000 -2.768070e-002 -1.395632e-002
         vertex 0.000000e+000 -2.964117e-002 -9.077506e-003
         vertex 3.250000e+000 -2.964117e-002 -9.077506e-003
      endloop
   endfacet
   facet normal 0.000000e+000 9.711873e-001 2.383175e-001
      outer loop
         vertex 3.250000e+000 -2.964117e-002 -9.077506e-003
         vertex 0.000000e+000 -2.964117e-002 -9.077506e-003
         vertex 0.000000e+000 -3.074891e-002 -3.937552e-003
      endloop
   endfacet
   facet normal 0.000000e+000 9.831368e-001 1.828716e-001
      outer loop
         vertex 3.250000e+000 -2.964117e-002 -9.077506e-003
         vertex 0.000000e+000 -3.074891e-002 -3.937552e-003
         vertex 3.250000e+000 -3.074891e-002 -3.937552e-003
      endloop
   endfacet
   facet normal 0.000000e+000 9.974935e-001 7.075802e-002
      outer loop
         vertex 3.250000e+000 -3.074891e-002 -3.937552e-003
         vertex 0.000000e+000 -3.074891e-002 -3.937552e-003
         vertex 0.000000e+000 -3.097207e-002 1.315677e-003
      endloop
   endfacet
   facet normal 0.000000e+000 9.999007e-001 1.409025e-002
      outer loop
         vertex 3.250000e+000 -3.074891e-002 -3.937552e-003
         vertex 0.000000e+000 -3.097207e-002 1.315677e-003
         vertex 3.250000e+000 -3.097207e-002 1.315677e-003
      endloop
   endfacet
   facet normal 0.000000e+000 9.951036e-001 -9.883699e-002
      outer loop
         vertex 3.250000e+000 -3.097207e-002 1.315677e-003
         vertex 0.000000e+000 -3.097207e-002 1.315677e-003
         vertex 0.000000e+000 -3.030421e-002 6.531057e-003
      endloop
   endfacet
   facet normal 0.000000e+000 9.878993e-001 -1.550965e-001
      outer loop
         vertex 3.250000e+000 -3.097207e-002 1.315677e-003
         vertex 0.000000e+000 -3.030421e-002 6.531057e-003
         vertex 3.250000e+000 -3.030421e-002 6.531057e-003
      endloop
   endfacet
   facet normal 0.000000e+000 9.640865e-001 -2.655886e-001
      outer loop
         vertex 3.250000e+000 -3.030421e-002 6.531057e-003
         vertex 0.000000e+000 -3.030421e-002 6.531057e-003
         vertex 0.000000e+000 -2.876456e-002 1.155855e-002
      endloop
   endfacet
   facet normal 0.000000e+000 9.474779e-001 -3.198213e-001
      outer loop
         vertex 3.250000e+000 -3.030421e-002 6.531057e-003
         vertex 0.000000e+000 -2.876456e-002 1.155855e-002
         vertex 3.250000e+000 -2.876456e-002 1.155855e-002
      endloop
   endfacet
   facet normal 0.000000e+000 9.053342e-001 -4.246998e-001
      outer loop
         vertex 3.250000e+000 -2.876456e-002 1.155855e-002
         vertex 0.000000e+000 -2.876456e-002 1.155855e-002
         vertex 0.000000e+000 -2.639740e-002 1.625353e-002
      endloop
   endfacet
   facet normal 0.000000e+000 8.797992e-001 -4.753455e-001
      outer loop
         vertex 3.250000e+000 -2.876456e-002 1.155855e-002
         vertex 0.000000e+000 -2.639740e-002 1.625353e-002
         vertex 3.250000e+000 -2.639740e-002 1.625353e-002
      endloop
   endfacet
   facet normal 0.000000e+000 8.205372e-001 -5.715931e-001
      outer loop
         vertex 3.250000e+000 -2.639740e-002 1.625353e-002
         vertex 0.000000e+000 -2.639740e-002 1.625353e-002
         vertex 0.000000e+000 -2.327084e-002 2.048092e-002
      endloop
   endfacet
   facet normal 0.000000e+000 7.868103e-001 -6.171949e-001
      outer loop
         vertex 3.250000e+000 -2.639740e-002 1.625353e-002
         vertex 0.000000e+000 -2.327084e-002 2.048092e-002
         vertex 3.250000e+000 -2.327084e-002 2.048092e-002
      endloop
   endfacet
   facet normal 0.000000e+000 7.121348e-001 -7.020428e-001
      outer loop
         vertex 3.250000e+000 -2.327084e-002 2.048092e-002
         vertex 0.000000e+000 -2.327084e-002 2.048092e-002
         vertex 0.000000e+000 -1.947482e-002 2.411911e-002
      endloop
   endfacet
   facet normal 0.000000e+000 6.711863e-001 -7.412888e-001
      outer loop
         vertex 3.250000e+000 -2.327084e-002 2.048092e-002
         vertex 0.000000e+000 -1.947482e-002 2.411911e-002
         vertex 3.250000e+000 -1.947482e-002 2.411911e-002
      endloop
   endfacet
   facet normal 0.000000e+000 5.832456e-001 -8.122959e-001
      outer loop
         vertex 3.250000e+000 -1.947482e-002 2.411911e-002
         vertex 0.000000e+000 -1.947482e-002 2.411911e-002
         vertex 0.000000e+000 -1.511854e-002 2.706344e-002
      endloop
   endfacet
   facet normal 0.000000e+000 5.362535e-001 -8.440570e-001
      outer loop
         vertex 3.250000e+000 -1.947482e-002 2.411911e-002
         vertex 0.000000e+000 -1.511854e-002 2.706344e-002
         vertex 3.250000e+000 -1.511854e-002 2.706344e-002
      endloop
   endfacet
   facet normal 0.000000e+000 4.375775e-001 -8.991807e-001
      outer loop
         vertex 3.250000e+000 -1.511854e-002 2.706344e-002
         vertex 0.000000e+000 -1.511854e-002 2.706344e-002
         vertex 0.000000e+000 -1.032733e-002 2.922920e-002
      endloop
   endfacet
   facet normal 0.000000e+000 3.858936e-001 -9.225433e-001
      outer loop
         vertex 3.250000e+000 -1.511854e-002 2.706344e-002
         vertex 0.000000e+000 -1.032733e-002 2.922920e-002
         vertex 3.250000e+000 -1.032733e-002 2.922920e-002
      endloop
   endfacet
   facet normal 0.000000e+000 2.793211e-001 -9.601977e-001
      outer loop
         vertex 3.250000e+000 -1.032733e-002 2.922920e-002
         vertex 0.000000e+000 -1.032733e-002 2.922920e-002
         vertex 0.000000e+000 -5.239025e-003 3.055409e-002
      endloop
   endfacet
   facet normal 0.000000e+000 2.244324e-001 -9.744897e-001
      outer loop
         vertex 3.250000e+000 -1.032733e-002 2.922920e-002
         vertex 0.000000e+000 -5.239025e-003 3.055409e-002
         vertex 3.250000e+000 -5.239025e-003 3.055409e-002
      endloop
   endfacet
   facet normal 0.000000e+000 1.130291e-001 -9.935917e-001
      outer loop
         vertex 3.250000e+000 -5.239025e-003 3.055409e-002
         vertex 0.000000e+000 -5.239025e-003 3.055409e-002
         vertex 0.000000e+000 -7.592810e-018 3.100000e-002
      endloop
   endfacet
   facet normal 0.000000e+000 0.000000e+000 -1.000000e+000
      outer loop
         vertex 3.250000e+000 5.905512e-002 -5.905512e-002
         vertex 3.250000e+000 -5.905512e-002 -5.905512e-002
         vertex 0.000000e+000 5.905512e-002 -5.905512e-002
      endloop
   endfacet
   facet normal 0.000000e+000 0.000000e+000 -1.000000e+000
      outer loop
         vertex 0.000000e+000 5.905512e-002 -5.905512e-002
         vertex 3.250000e+000 -5.905512e-002 -5.905512e-002
         vertex 0.000000e+000 -5.905512e-002 -5.905512e-002
      endloop
   endfacet
   facet normal 1.000000e+000 0.000000e+000 0.000000e+000
      outer loop
         vertex 3.250000e+000 2.964117e-002 -9.077506e-003
         vertex 3.250000e+000 2.768070e-002 -1.395632e-002
         vertex 3.250000e+000 5.905512e-002 -5.905512e-002
      endloop
   endfacet
   facet normal 1.000000e+000 0.000000e+000 0.000000e+000
      outer loop
         vertex 3.250000e+000 2.768070e-002 -1.395632e-002
         vertex 3.250000e+000 2.492391e-002 -1.843363e-002
         vertex 3.250000e+000 5.905512e-002 -5.905512e-002
      endloop
   endfacet
   facet normal 1.000000e+000 0.000000e+000 0.000000e+000
      outer loop
         vertex 3.250000e+000 5.905512e-002 -5.905512e-002
         vertex 3.250000e+000 2.492391e-002 -1.843363e-002
         vertex 3.250000e+000 2.145011e-002 -2.238064e-002
      endloop
   endfacet
   facet normal 1.000000e+000 0.000000e+000 0.000000e+000
      outer loop
         vertex 3.250000e+000 5.905512e-002 -5.905512e-002
         vertex 3.250000e+000 2.145011e-002 -2.238064e-002
         vertex 3.250000e+000 1.735922e-002 -2.568380e-002
      endloop
   endfacet
   facet normal 1.000000e+000 0.000000e+000 0.000000e+000
      outer loop
         vertex 3.250000e+000 5.905512e-002 -5.905512e-002
         vertex 3.250000e+000 2.628984e-003 -3.088832e-002
         vertex 3.250000e+000 -5.905512e-002 -5.905512e-002
      endloop
   endfacet
   facet normal 1.000000e+000 0.000000e+000 0.000000e+000
      outer loop
         vertex 3.250000e+000 -5.905512e-002 -5.905512e-002
         vertex 3.250000e+000 2.628984e-003 -3.088832e-002
         vertex 3.250000e+000 -2.628984e-003 -3.088832e-002
      endloop
   endfacet
   facet normal 1.000000e+000 0.000000e+000 0.000000e+000
      outer loop
         vertex 3.250000e+000 -2.628984e-003 -3.088832e-002
         vertex 3.250000e+000 -7.811320e-003 -2.999972e-002
         vertex 3.250000e+000 -5.905512e-002 -5.905512e-002
      endloop
   endfacet
   facet normal 1.000000e+000 0.000000e+000 0.000000e+000
      outer loop
         vertex 3.250000e+000 -5.905512e-002 -5.905512e-002
         vertex 3.250000e+000 -7.811320e-003 -2.999972e-002
         vertex 3.250000e+000 -1.276894e-002 -2.824808e-002
      endloop
   endfacet
   facet normal 1.000000e+000 0.000000e+000 0.000000e+000
      outer loop
         vertex 3.250000e+000 -5.905512e-002 -5.905512e-002
         vertex 3.250000e+000 -1.276894e-002 -2.824808e-002
         vertex 3.250000e+000 -1.735922e-002 -2.568380e-002
      endloop
   endfacet
   facet normal 1.000000e+000 0.000000e+000 0.000000e+000
      outer loop
         vertex 3.250000e+000 -1.735922e-002 -2.568380e-002
         vertex 3.250000e+000 -2.145011e-002 -2.238064e-002
         vertex 3.250000e+000 -5.905512e-002 -5.905512e-002
      endloop
   endfacet
   facet normal 1.000000e+000 0.000000e+000 0.000000e+000
      outer loop
         vertex 3.250000e+000 -5.905512e-002 -5.905512e-002
         vertex 3.250000e+000 -2.145011e-002 -2.238064e-002
         vertex 3.250000e+000 -2.492391e-002 -1.843363e-002
      endloop
   endfacet
   facet normal 1.000000e+000 0.000000e+000 0.000000e+000
      outer loop
         vertex 3.250000e+000 -5.905512e-002 -5.905512e-002
         vertex 3.250000e+000 -2.492391e-002 -1.843363e-002
         vertex 3.250000e+000 -2.768070e-002 -1.395632e-002
      endloop
   endfacet
   facet normal 1.000000e+000 0.000000e+000 0.000000e+000
      outer loop
         vertex 3.250000e+000 -3.030421e-002 6.531057e-003
         vertex 3.250000e+000 -2.876456e-002 1.155855e-002
         vertex 3.250000e+000 -5.905512e-002 5.905512e-002
      endloop
   endfacet
   facet normal 1.000000e+000 0.000000e+000 0.000000e+000
      outer loop
         vertex 3.250000e+000 -5.905512e-002 5.905512e-002
         vertex 3.250000e+000 -2.876456e-002 1.155855e-002
         vertex 3.250000e+000 -2.639740e-002 1.625353e-002
      endloop
   endfacet
   facet normal 1.000000e+000 0.000000e+000 0.000000e+000
      outer loop
         vertex 3.250000e+000 -5.905512e-002 5.905512e-002
         vertex 3.250000e+000 -2.639740e-002 1.625353e-002
         vertex 3.250000e+000 -2.327084e-002 2.048092e-002
      endloop
   endfacet
   facet normal 1.000000e+000 0.000000e+000 0.000000e+000
      outer loop
         vertex 3.250000e+000 1.032733e-002 2.922920e-002
         vertex 3.250000e+000 1.511854e-002 2.706344e-002
         vertex 3.250000e+000 5.905512e-002 5.905512e-002
      endloop
   endfacet
   facet normal 1.000000e+000 0.000000e+000 0.000000e+000
      outer loop
         vertex 3.250000e+000 5.905512e-002 5.905512e-002
         vertex 3.250000e+000 1.511854e-002 2.706344e-002
         vertex 3.250000e+000 1.947482e-002 2.411911e-002
      endloop
   endfacet
   facet normal 1.000000e+000 0.000000e+000 0.000000e+000
      outer loop
         vertex 3.250000e+000 1.947482e-002 2.411911e-002
         vertex 3.250000e+000 2.327084e-002 2.048092e-002
         vertex 3.250000e+000 5.905512e-002 5.905512e-002
      endloop
   endfacet
   facet normal 1.000000e+000 0.000000e+000 0.000000e+000
      outer loop
         vertex 3.250000e+000 5.905512e-002 5.905512e-002
         vertex 3.250000e+000 2.327084e-002 2.048092e-002
         vertex 3.250000e+000 2.639740e-002 1.625353e-002
      endloop
   endfacet
   facet normal 1.000000e+000 0.000000e+000 0.000000e+000
      outer loop
         vertex 3.250000e+000 5.905512e-002 5.905512e-002
         vertex 3.250000e+000 2.639740e-002 1.625353e-002
         vertex 3.250000e+000 2.876456e-002 1.155855e-002
      endloop
   endfacet
   facet normal 1.000000e+000 0.000000e+000 0.000000e+000
      outer loop
         vertex 3.250000e+000 1.735922e-002 -2.568380e-002
         vertex 3.250000e+000 1.276894e-002 -2.824808e-002
         vertex 3.250000e+000 5.905512e-002 -5.905512e-002
      endloop
   endfacet
   facet normal 1.000000e+000 0.000000e+000 0.000000e+000
      outer loop
         vertex 3.250000e+000 5.905512e-002 -5.905512e-002
         vertex 3.250000e+000 1.276894e-002 -2.824808e-002
         vertex 3.250000e+000 7.811320e-003 -2.999972e-002
      endloop
   endfacet
   facet normal 1.000000e+000 0.000000e+000 0.000000e+000
      outer loop
         vertex 3.250000e+000 5.905512e-002 -5.905512e-002
         vertex 3.250000e+000 7.811320e-003 -2.999972e-002
         vertex 3.250000e+000 2.628984e-003 -3.088832e-002
      endloop
   endfacet
   facet normal 1.000000e+000 0.000000e+000 0.000000e+000
      outer loop
         vertex 3.250000e+000 -2.327084e-002 2.048092e-002
         vertex 3.250000e+000 -1.947482e-002 2.411911e-002
         vertex 3.250000e+000 -5.905512e-002 5.905512e-002
      endloop
   endfacet
   facet normal 1.000000e+000 0.000000e+000 0.000000e+000
      outer loop
         vertex 3.250000e+000 -5.905512e-002 5.905512e-002
         vertex 3.250000e+000 -1.947482e-002 2.411911e-002
         vertex 3.250000e+000 -1.511854e-002 2.706344e-002
      endloop
   endfacet
   facet normal 1.000000e+000 0.000000e+000 0.000000e+000
      outer loop
         vertex 3.250000e+000 -5.905512e-002 5.905512e-002
         vertex 3.250000e+000 -1.511854e-002 2.706344e-002
         vertex 3.250000e+000 -1.032733e-002 2.922920e-002
      endloop
   endfacet
   facet normal 1.000000e+000 0.000000e+000 0.000000e+000
      outer loop
         vertex 3.250000e+000 -1.032733e-002 2.922920e-002
         vertex 3.250000e+000 -5.239025e-003 3.055409e-002
         vertex 3.250000e+000 -5.905512e-002 5.905512e-002
      endloop
   endfacet
   facet normal 1.000000e+000 0.000000e+000 0.000000e+000
      outer loop
         vertex 3.250000e+000 -5.905512e-002 5.905512e-002
         vertex 3.250000e+000 -5.239025e-003 3.055409e-002
         vertex 3.250000e+000 -7.592810e-018 3.100000e-002
      endloop
   endfacet
   facet normal 1.000000e+000 0.000000e+000 0.000000e+000
      outer loop
         vertex 3.250000e+000 -5.905512e-002 5.905512e-002
         vertex 3.250000e+000 -7.592810e-018 3.100000e-002
         vertex 3.250000e+000 5.905512e-002 5.905512e-002
      endloop
   endfacet
   facet normal 1.000000e+000 0.000000e+000 0.000000e+000
      outer loop
         vertex 3.250000e+000 5.905512e-002 5.905512e-002
         vertex 3.250000e+000 -7.592810e-018 3.100000e-002
         vertex 3.250000e+000 5.239025e-003 3.055409e-002
      endloop
   endfacet
   facet normal 1.000000e+000 0.000000e+000 0.000000e+000
      outer loop
         vertex 3.250000e+000 5.905512e-002 5.905512e-002
         vertex 3.250000e+000 5.239025e-003 3.055409e-002
         vertex 3.250000e+000 1.032733e-002 2.922920e-002
      endloop
   endfacet
   facet normal 1.000000e+000 0.000000e+000 0.000000e+000
      outer loop
         vertex 3.250000e+000 -2.768070e-002 -1.395632e-002
         vertex 3.250000e+000 -2.964117e-002 -9.077506e-003
         vertex 3.250000e+000 -5.905512e-002 -5.905512e-002
      endloop
   endfacet
   facet normal 1.000000e+000 0.000000e+000 0.000000e+000
      outer loop
         vertex 3.250000e+000 -5.905512e-002 -5.905512e-002
         vertex 3.250000e+000 -2.964117e-002 -9.077506e-003
         vertex 3.250000e+000 -3.074891e-002 -3.937552e-003
      endloop
   endfacet
   facet normal 1.000000e+000 0.000000e+000 0.000000e+000
      outer loop
         vertex 3.250000e+000 -5.905512e-002 -5.905512e-002
         vertex 3.250000e+000 -3.074891e-002 -3.937552e-003
         vertex 3.250000e+000 -5.905512e-002 5.905512e-002
      endloop
   endfacet
   facet normal 1.000000e+000 0.000000e+000 0.000000e+000
      outer loop
         vertex 3.250000e+000 -5.905512e-002 5.905512e-002
         vertex 3.250000e+000 -3.074891e-002 -3.937552e-003
         vertex 3.250000e+000 -3.097207e-002 1.315677e-003
      endloop
   endfacet
   facet normal 1.000000e+000 0.000000e+000 0.000000e+000
      outer loop
         vertex 3.250000e+000 -5.905512e-002 5.905512e-002
         vertex 3.250000e+000 -3.097207e-002 1.315677e-003
         vertex 3.250000e+000 -3.030421e-002 6.531057e-003
      endloop
   endfacet
   facet normal 1.000000e+000 0.000000e+000 0.000000e+000
      outer loop
         vertex 3.250000e+000 2.876456e-002 1.155855e-002
         vertex 3.250000e+000 3.030421e-002 6.531057e-003
         vertex 3.250000e+000 5.905512e-002 5.905512e-002
      endloop
   endfacet
   facet normal 1.000000e+000 0.000000e+000 0.000000e+000
      outer loop
         vertex 3.250000e+000 5.905512e-002 5.905512e-002
         vertex 3.250000e+000 3.030421e-002 6.531057e-003
         vertex 3.250000e+000 3.097207e-002 1.315677e-003
      endloop
   endfacet
   facet normal 1.000000e+000 0.000000e+000 0.000000e+000
      outer loop
         vertex 3.250000e+000 5.905512e-002 5.905512e-002
         vertex 3.250000e+000 3.097207e-002 1.315677e-003
         vertex 3.250000e+000 5.905512e-002 -5.905512e-002
      endloop
   endfacet
   facet normal 1.000000e+000 0.000000e+000 0.000000e+000
      outer loop
         vertex 3.250000e+000 5.905512e-002 -5.905512e-002
         vertex 3.250000e+000 3.097207e-002 1.315677e-003
         vertex 3.250000e+000 3.074891e-002 -3.937552e-003
      endloop
   endfacet
   facet normal 1.000000e+000 0.000000e+000 0.000000e+000
      outer loop
         vertex 3.250000e+000 5.905512e-002 -5.905512e-002
         vertex 3.250000e+000 3.074891e-002 -3.937552e-003
         vertex 3.250000e+000 2.964117e-002 -9.077506e-003
      endloop
   endfacet
   facet normal 0.000000e+000 -1.000000e+000 0.000000e+000
      outer loop
         vertex 3.250000e+000 -5.905512e-002 -5.905512e-002
         vertex 3.250000e+000 -5.905512e-002 5.905512e-002
         vertex 0.000000e+000 -5.905512e-002 -5.905512e-002
      endloop
   endfacet
   facet normal 0.000000e+000 -1.000000e+000 0.000000e+000
      outer loop
         vertex 0.000000e+000 -5.905512e-002 -5.905512e-002
         vertex 3.250000e+000 -5.905512e-002 5.905512e-002
         vertex 0.000000e+000 -5.905512e-002 5.905512e-002
      endloop
   endfacet
   facet normal -1.000000e+000 0.000000e+000 0.000000e+000
      outer loop
         vertex 0.000000e+000 -5.905512e-002 5.905512e-002
         vertex 0.000000e+000 0.000000e+000 3.100000e-002
         vertex 0.000000e+000 -5.239025e-003 3.055409e-002
      endloop
   endfacet
   facet normal -1.000000e+000 0.000000e+000 0.000000e+000
      outer loop
         vertex 0.000000e+000 0.000000e+000 3.100000e-002
         vertex 0.000000e+000 -5.905512e-002 5.905512e-002
         vertex 0.000000e+000 5.239025e-003 3.055409e-002
      endloop
   endfacet
   facet normal -1.000000e+000 0.000000e+000 0.000000e+000
      outer loop
         vertex 0.000000e+000 5.239025e-003 3.055409e-002
         vertex 0.000000e+000 -5.905512e-002 5.905512e-002
         vertex 0.000000e+000 5.905512e-002 5.905512e-002
      endloop
   endfacet
   facet normal -1.000000e+000 0.000000e+000 0.000000e+000
      outer loop
         vertex 0.000000e+000 5.239025e-003 3.055409e-002
         vertex 0.000000e+000 5.905512e-002 5.905512e-002
         vertex 0.000000e+000 1.032733e-002 2.922920e-002
      endloop
   endfacet
   facet normal -1.000000e+000 0.000000e+000 0.000000e+000
      outer loop
         vertex 0.000000e+000 -5.239025e-003 3.055409e-002
         vertex 0.000000e+000 -1.032733e-002 2.922920e-002
         vertex 0.000000e+000 -5.905512e-002 5.905512e-002
      endloop
   endfacet
   facet normal -1.000000e+000 0.000000e+000 0.000000e+000
      outer loop
         vertex 0.000000e+000 -5.905512e-002 5.905512e-002
         vertex 0.000000e+000 -1.032733e-002 2.922920e-002
         vertex 0.000000e+000 -1.511854e-002 2.706344e-002
      endloop
   endfacet
   facet normal -1.000000e+000 0.000000e+000 0.000000e+000
      outer loop
         vertex 0.000000e+000 -5.905512e-002 5.905512e-002
         vertex 0.000000e+000 -1.511854e-002 2.706344e-002
         vertex 0.000000e+000 -1.947482e-002 2.411911e-002
      endloop
   endfacet
   facet normal -1.000000e+000 0.000000e+000 0.000000e+000
      outer loop
         vertex 0.000000e+000 -1.947482e-002 2.411911e-002
         vertex 0.000000e+000 -2.327084e-002 2.048092e-002
         vertex 0.000000e+000 -5.905512e-002 5.905512e-002
      endloop
   endfacet
   facet normal -1.000000e+000 0.000000e+000 0.000000e+000
      outer loop
         vertex 0.000000e+000 -5.905512e-002 5.905512e-002
         vertex 0.000000e+000 -2.327084e-002 2.048092e-002
         vertex 0.000000e+000 -2.639740e-002 1.625353e-002
      endloop
   endfacet
   facet normal -1.000000e+000 0.000000e+000 0.000000e+000
      outer loop
         vertex 0.000000e+000 -5.905512e-002 5.905512e-002
         vertex 0.000000e+000 -2.639740e-002 1.625353e-002
         vertex 0.000000e+000 -2.876456e-002 1.155855e-002
      endloop
   endfacet
   facet normal -1.000000e+000 0.000000e+000 0.000000e+000
      outer loop
         vertex 0.000000e+000 -2.876456e-002 1.155855e-002
         vertex 0.000000e+000 -3.030421e-002 6.531057e-003
         vertex 0.000000e+000 -5.905512e-002 5.905512e-002
      endloop
   endfacet
   facet normal -1.000000e+000 0.000000e+000 0.000000e+000
      outer loop
         vertex 0.000000e+000 -5.905512e-002 5.905512e-002
         vertex 0.000000e+000 -3.030421e-002 6.531057e-003
         vertex 0.000000e+000 -3.097207e-002 1.315677e-003
      endloop
   endfacet
   facet normal -1.000000e+000 0.000000e+000 0.000000e+000
      outer loop
         vertex 0.000000e+000 -5.905512e-002 5.905512e-002
         vertex 0.000000e+000 -3.097207e-002 1.315677e-003
         vertex 0.000000e+000 -5.905512e-002 -5.905512e-002
      endloop
   endfacet
   facet normal -1.000000e+000 0.000000e+000 0.000000e+000
      outer loop
         vertex 0.000000e+000 -5.905512e-002 -5.905512e-002
         vertex 0.000000e+000 -3.097207e-002 1.315677e-003
         vertex 0.000000e+000 -3.074891e-002 -3.937552e-003
      endloop
   endfacet
   facet normal -1.000000e+000 0.000000e+000 0.000000e+000
      outer loop
         vertex 0.000000e+000 -3.074891e-002 -3.937552e-003
         vertex 0.000000e+000 -2.964117e-002 -9.077506e-003
         vertex 0.000000e+000 -5.905512e-002 -5.905512e-002
      endloop
   endfacet
   facet normal -1.000000e+000 0.000000e+000 0.000000e+000
      outer loop
         vertex 0.000000e+000 -5.905512e-002 -5.905512e-002
         vertex 0.000000e+000 -2.964117e-002 -9.077506e-003
         vertex 0.000000e+000 -2.768070e-002 -1.395632e-002
      endloop
   endfacet
   facet normal -1.000000e+000 0.000000e+000 0.000000e+000
      outer loop
         vertex 0.000000e+000 -5.905512e-002 -5.905512e-002
         vertex 0.000000e+000 -2.768070e-002 -1.395632e-002
         vertex 0.000000e+000 -2.492391e-002 -1.843363e-002
      endloop
   endfacet
   facet normal -1.000000e+000 0.000000e+000 0.000000e+000
      outer loop
         vertex 0.000000e+000 -2.492391e-002 -1.843363e-002
         vertex 0.000000e+000 -2.145011e-002 -2.238064e-002
         vertex 0.000000e+000 -5.905512e-002 -5.905512e-002
      endloop
   endfacet
   facet normal -1.000000e+000 0.000000e+000 0.000000e+000
      outer loop
         vertex 0.000000e+000 -5.905512e-002 -5.905512e-002
         vertex 0.000000e+000 -2.145011e-002 -2.238064e-002
         vertex 0.000000e+000 -1.735922e-002 -2.568380e-002
      endloop
   endfacet
   facet normal -1.000000e+000 0.000000e+000 0.000000e+000
      outer loop
         vertex 0.000000e+000 -5.905512e-002 -5.905512e-002
         vertex 0.000000e+000 -1.735922e-002 -2.568380e-002
         vertex 0.000000e+000 -1.276894e-002 -2.824808e-002
      endloop
   endfacet
   facet normal -1.000000e+000 0.000000e+000 0.000000e+000
      outer loop
         vertex 0.000000e+000 2.768070e-002 -1.395632e-002
         vertex 0.000000e+000 5.905512e-002 -5.905512e-002
         vertex 0.000000e+000 2.492391e-002 -1.843363e-002
      endloop
   endfacet
   facet normal -1.000000e+000 0.000000e+000 0.000000e+000
      outer loop
         vertex 0.000000e+000 2.492391e-002 -1.843363e-002
         vertex 0.000000e+000 5.905512e-002 -5.905512e-002
         vertex 0.000000e+000 2.145011e-002 -2.238064e-002
      endloop
   endfacet
   facet normal -1.000000e+000 0.000000e+000 0.000000e+000
      outer loop
         vertex 0.000000e+000 3.030421e-002 6.531057e-003
         vertex 0.000000e+000 2.876456e-002 1.155855e-002
         vertex 0.000000e+000 5.905512e-002 5.905512e-002
      endloop
   endfacet
   facet normal -1.000000e+000 0.000000e+000 0.000000e+000
      outer loop
         vertex 0.000000e+000 5.905512e-002 5.905512e-002
         vertex 0.000000e+000 2.876456e-002 1.155855e-002
         vertex 0.000000e+000 2.639740e-002 1.625353e-002
      endloop
   endfacet
   facet normal -1.000000e+000 0.000000e+000 0.000000e+000
      outer loop
         vertex 0.000000e+000 5.905512e-002 5.905512e-002
         vertex 0.000000e+000 2.639740e-002 1.625353e-002
         vertex 0.000000e+000 2.327084e-002 2.048092e-002
      endloop
   endfacet
   facet normal -1.000000e+000 0.000000e+000 0.000000e+000
      outer loop
         vertex 0.000000e+000 2.327084e-002 2.048092e-002
         vertex 0.000000e+000 1.947482e-002 2.411911e-002
         vertex 0.000000e+000 5.905512e-002 5.905512e-002
      endloop
   endfacet
   facet normal -1.000000e+000 0.000000e+000 0.000000e+000
      outer loop
         vertex 0.000000e+000 5.905512e-002 5.905512e-002
         vertex 0.000000e+000 1.947482e-002 2.411911e-002
         vertex 0.000000e+000 1.511854e-002 2.706344e-002
      endloop
   endfacet
   facet normal -1.000000e+000 0.000000e+000 0.000000e+000
      outer loop
         vertex 0.000000e+000 5.905512e-002 5.905512e-002
         vertex 0.000000e+000 1.511854e-002 2.706344e-002
         vertex 0.000000e+000 1.032733e-002 2.922920e-002
      endloop
   endfacet
   facet normal -1.000000e+000 0.000000e+000 0.000000e+000
      outer loop
         vertex 0.000000e+000 -1.276894e-002 -2.824808e-002
         vertex 0.000000e+000 -7.811320e-003 -2.999972e-002
         vertex 0.000000e+000 -5.905512e-002 -5.905512e-002
      endloop
   endfacet
   facet normal -1.000000e+000 0.000000e+000 0.000000e+000
      outer loop
         vertex 0.000000e+000 -5.905512e-002 -5.905512e-002
         vertex 0.000000e+000 -7.811320e-003 -2.999972e-002
         vertex 0.000000e+000 -2.628984e-003 -3.088832e-002
      endloop
   endfacet
   facet normal -1.000000e+000 0.000000e+000 0.000000e+000
      outer loop
         vertex 0.000000e+000 -5.905512e-002 -5.905512e-002
         vertex 0.000000e+000 -2.628984e-003 -3.088832e-002
         vertex 0.000000e+000 5.905512e-002 -5.905512e-002
      endloop
   endfacet
   facet normal -1.000000e+000 0.000000e+000 0.000000e+000
      outer loop
         vertex 0.000000e+000 5.905512e-002 -5.905512e-002
         vertex 0.000000e+000 -2.628984e-003 -3.088832e-002
         vertex 0.000000e+000 2.628984e-003 -3.088832e-002
      endloop
   endfacet
   facet normal -1.000000e+000 0.000000e+000 0.000000e+000
      outer loop
         vertex 0.000000e+000 5.905512e-002 -5.905512e-002
         vertex 0.000000e+000 2.628984e-003 -3.088832e-002
         vertex 0.000000e+000 7.811320e-003 -2.999972e-002
      endloop
   endfacet
   facet normal -1.000000e+000 0.000000e+000 0.000000e+000
      outer loop
         vertex 0.000000e+000 7.811320e-003 -2.999972e-002
         vertex 0.000000e+000 1.276894e-002 -2.824808e-002
         vertex 0.000000e+000 5.905512e-002 -5.905512e-002
      endloop
   endfacet
   facet normal -1.000000e+000 0.000000e+000 0.000000e+000
      outer loop
         vertex 0.000000e+000 5.905512e-002 -5.905512e-002
         vertex 0.000000e+000 1.276894e-002 -2.824808e-002
         vertex 0.000000e+000 1.735922e-002 -2.568380e-002
      endloop
   endfacet
   facet normal -1.000000e+000 0.000000e+000 0.000000e+000
      outer loop
         vertex 0.000000e+000 5.905512e-002 -5.905512e-002
         vertex 0.000000e+000 1.735922e-002 -2.568380e-002
         vertex 0.000000e+000 2.145011e-002 -2.238064e-002
      endloop
   endfacet
   facet normal -1.000000e+000 0.000000e+000 0.000000e+000
      outer loop
         vertex 0.000000e+000 2.768070e-002 -1.395632e-002
         vertex 0.000000e+000 2.964117e-002 -9.077506e-003
         vertex 0.000000e+000 5.905512e-002 -5.905512e-002
      endloop
   endfacet
   facet normal -1.000000e+000 0.000000e+000 0.000000e+000
      outer loop
         vertex 0.000000e+000 5.905512e-002 -5.905512e-002
         vertex 0.000000e+000 2.964117e-002 -9.077506e-003
         vertex 0.000000e+000 3.074891e-002 -3.937552e-003
      endloop
   endfacet
   facet normal -1.000000e+000 0.000000e+000 0.000000e+000
      outer loop
         vertex 0.000000e+000 5.905512e-002 -5.905512e-002
         vertex 0.000000e+000 3.074891e-002 -3.937552e-003
         vertex 0.000000e+000 5.905512e-002 5.905512e-002
      endloop
   endfacet
   facet normal -1.000000e+000 0.000000e+000 0.000000e+000
      outer loop
         vertex 0.000000e+000 5.905512e-002 5.905512e-002
         vertex 0.000000e+000 3.074891e-002 -3.937552e-003
         vertex 0.000000e+000 3.097207e-002 1.315677e-003
      endloop
   endfacet
   facet normal -1.000000e+000 0.000000e+000 0.000000e+000
      outer loop
         vertex 0.000000e+000 5.905512e-002 5.905512e-002
         vertex 0.000000e+000 3.097207e-002 1.315677e-003
         vertex 0.000000e+000 3.030421e-002 6.531057e-003
      endloop
   endfacet
   facet normal 0.000000e+000 1.000000e+000 0.000000e+000
      outer loop
         vertex 3.250000e+000 5.905512e-002 5.905512e-002
         vertex 3.250000e+000 5.905512e-002 -5.905512e-002
         vertex 0.000000e+000 5.905512e-002 5.905512e-002
      endloop
   endfacet
   facet normal 0.000000e+000 1.000000e+000 0.000000e+000
      outer loop
         vertex 0.000000e+000 5.905512e-002 5.905512e-002
         vertex 3.250000e+000 5.905512e-002 -5.905512e-002
         vertex 0.000000e+000 5.905512e-002 -5.905512e-002
      endloop
   endfacet
   facet normal 0.000000e+000 0.000000e+000 1.000000e+000
      outer loop
         vertex 3.250000e+000 -5.905512e-002 5.905512e-002
         vertex 3.250000e+000 5.905512e-002 5.905512e-002
         vertex 0.000000e+000 -5.905512e-002 5.905512e-002
      endloop
   endfacet
   facet normal 0.000000e+000 0.000000e+000 1.000000e+000
      outer loop
         vertex 0.000000e+000 -5.905512e-002 5.905512e-002
         vertex 3.250000e+000 5.905512e-002 5.905512e-002
         vertex 0.000000e+000 5.905512e-002 5.905512e-002
      endloop
   endfacet
endsolid